<?xml version="1.0" standalone="no"?>
<!DOCTYPE svg PUBLIC "-//W3C//DTD SVG 20010904//EN"
 "http://www.w3.org/TR/2001/REC-SVG-20010904/DTD/svg10.dtd">
<svg version="1.0" xmlns="http://www.w3.org/2000/svg"
 width="800.000000pt" height="994.000000pt" viewBox="0 0 800.000000 994.000000"
 preserveAspectRatio="xMidYMid meet">

<g transform="translate(0.000000,994.000000) scale(0.100000,-0.100000)"
fill="#000000" stroke="none">
<path d="M3505 8780 c-229 -41 -476 -153 -678 -307 -79 -61 -262 -238 -318
-309 -41 -52 -46 -55 -78 -49 -27 5 -33 4 -28 -8 8 -22 -2 -28 -27 -16 -14 7
-12 3 7 -11 15 -12 27 -27 27 -33 0 -13 -80 -130 -92 -135 -4 -2 -8 -8 -8 -12
0 -5 -27 -58 -60 -117 -196 -355 -321 -742 -379 -1178 -13 -98 -31 -354 -31
-452 l0 -72 -75 -51 c-41 -28 -81 -61 -89 -73 -25 -38 -28 -98 -12 -202 9 -55
19 -114 22 -132 2 -17 -3 -80 -12 -140 -10 -65 -14 -138 -11 -185 l5 -77 -51
-29 c-82 -46 -165 -73 -256 -83 -47 -5 -86 -11 -87 -12 -1 -1 -4 -36 -8 -79
l-7 -76 43 9 c91 20 217 77 308 138 25 17 47 26 48 21 6 -17 -75 -117 -130
-161 -55 -43 -138 -88 -200 -108 l-38 -13 0 -89 0 -89 29 0 c42 0 170 88 261
179 63 62 87 96 124 172 50 102 54 104 31 14 -28 -106 -127 -263 -205 -326
l-40 -33 34 -35 c20 -22 36 -51 40 -73 7 -40 26 -53 26 -18 0 11 14 32 31 47
54 48 119 149 148 230 26 71 39 131 56 266 4 27 9 47 12 44 16 -17 21 -92 10
-177 -7 -52 -11 -102 -9 -110 9 -49 90 -38 83 10 -1 14 -7 28 -12 31 -5 3 7
14 26 25 36 19 36 19 29 69 -12 94 -53 237 -81 284 -26 43 -29 57 -39 221 -7
118 -18 207 -34 272 l-24 98 24 25 c40 43 39 47 60 -140 24 -216 86 -502 153
-705 84 -254 233 -552 370 -738 21 -30 37 -56 34 -58 -6 -7 -209 45 -395 101
-383 114 -786 276 -1195 482 -153 76 -207 98 -207 84 0 -5 36 -28 80 -52 44
-24 88 -50 98 -57 16 -13 15 -13 -3 -8 l-20 6 20 -15 c42 -33 546 -279 675
-330 221 -87 590 -203 820 -259 489 -117 913 -179 1410 -206 426 -23 877 -2
1320 61 80 12 148 25 151 31 4 6 12 7 18 4 18 -11 106 5 90 16 -10 7 -5 8 13
4 30 -7 162 18 353 66 270 67 532 153 832 274 184 73 547 243 539 252 -3 2
-59 -21 -126 -52 -84 -40 -127 -55 -143 -51 -16 5 -18 4 -8 -3 11 -8 9 -11 -8
-17 -11 -3 -25 -3 -31 0 -5 3 -10 1 -10 -5 0 -7 -7 -9 -16 -6 -10 4 -13 2 -8
-6 5 -8 2 -9 -10 -5 -11 5 -15 3 -10 -5 5 -8 2 -9 -9 -5 -10 3 -17 2 -17 -4 0
-5 -6 -9 -12 -8 -27 3 -39 -1 -32 -13 5 -8 2 -9 -9 -5 -21 8 -49 -2 -41 -14 3
-5 -2 -6 -10 -3 -9 4 -16 1 -16 -6 0 -7 -7 -10 -15 -6 -8 3 -21 -1 -29 -9 -7
-8 -16 -12 -19 -9 -3 4 -12 2 -19 -2 -7 -5 -17 -10 -23 -11 -5 -1 -109 -36
-230 -77 -237 -81 -432 -134 -700 -191 -193 -41 -548 -98 -579 -92 -12 2 12 7
52 12 l74 8 -5 31 c-4 26 4 42 43 91 348 443 576 1093 596 1695 7 195 -9 183
-25 -20 -15 -185 -31 -283 -42 -255 -7 19 -8 19 -8 -3 -2 -41 -68 -323 -106
-447 -45 -149 -107 -308 -173 -445 -84 -173 -309 -513 -323 -487 -4 7 -30 74
-58 150 -88 236 -202 469 -301 617 -20 30 -35 61 -32 69 3 8 0 11 -6 7 -6 -4
-8 1 -5 13 3 13 17 21 41 26 57 11 102 32 102 49 0 11 -9 14 -35 10 -19 -2
-51 -6 -70 -8 -19 -3 -35 -3 -35 0 0 2 18 28 41 56 22 28 50 70 61 92 11 23
29 52 40 65 14 19 16 26 6 32 -7 5 -17 4 -22 -1 -15 -15 -64 -12 -73 4 -4 8
-21 16 -38 18 -44 5 -37 16 28 43 65 26 97 50 97 73 0 10 -3 12 -12 4 -11 -9
-100 -18 -132 -13 -15 2 32 48 101 101 34 26 60 50 57 53 -8 8 9 36 55 92 l40
49 -28 12 c-15 6 -40 10 -55 7 -15 -3 -26 -1 -26 6 0 7 22 11 59 11 32 0 71 4
87 9 16 5 50 12 77 16 82 11 41 25 -74 25 -60 0 -109 4 -109 8 0 4 16 14 36
21 22 8 34 18 31 26 -3 7 0 12 6 12 57 -1 88 5 94 19 10 27 -14 38 -83 36 -65
-1 -66 0 -48 19 10 11 33 27 51 36 56 26 37 31 -44 12 -99 -23 -102 -23 -96 1
3 11 8 20 12 20 3 0 20 12 36 26 18 15 23 23 12 20 -11 -4 -16 -2 -12 5 4 6
14 8 22 4 10 -3 27 7 47 29 17 18 45 41 63 50 21 11 30 21 27 31 -7 18 -14 19
-39 2 -29 -20 -57 -29 -49 -16 3 6 -13 1 -35 -11 -43 -21 -131 -42 -131 -31 0
9 81 91 108 109 25 16 30 37 7 28 -8 -3 -15 -3 -15 0 0 8 101 105 126 122 18
12 17 12 -6 9 -14 -3 -34 -8 -45 -13 -12 -5 -5 7 18 30 21 20 52 42 70 48 37
13 77 37 77 47 0 17 -81 30 -131 21 -29 -6 -54 -8 -57 -6 -2 3 15 17 39 31 42
27 45 27 292 36 138 4 284 13 324 19 55 9 82 9 108 0 l36 -12 -26 -20 c-14
-11 -25 -28 -25 -39 0 -17 7 -19 60 -19 45 0 60 4 60 14 0 11 10 13 38 9 51
-7 61 8 71 101 6 55 19 98 44 149 20 40 53 113 75 162 22 50 65 143 96 209 51
107 58 118 78 113 67 -16 102 -18 147 -7 50 12 75 31 95 73 10 19 21 23 86 27
109 7 140 31 140 104 0 58 -30 70 -147 63 -62 -4 -92 -2 -82 4 51 33 354 109
434 109 l35 0 0 76 0 77 -82 -6 c-115 -8 -229 -46 -395 -133 -79 -41 -148 -74
-154 -74 -15 0 -4 31 47 135 46 94 55 143 28 169 -19 20 -28 20 -63 2 -68 -36
-126 -131 -140 -231 -10 -68 -16 -81 -63 -126 -39 -38 -50 -75 -43 -140 8 -68
-1 -90 -118 -264 -44 -65 -103 -167 -130 -225 -28 -58 -51 -106 -52 -108 -1
-1 -80 5 -176 14 -129 12 -222 14 -356 10 -180 -7 -183 -7 -183 13 0 18 -6 21
-40 21 -33 0 -40 3 -40 19 0 31 -12 32 -71 6 l-54 -25 50 45 c27 25 45 45 40
45 -6 0 -39 -9 -74 -20 -100 -30 -97 -14 8 49 38 24 99 53 136 66 77 27 72 39
-10 24 -31 -6 -63 -8 -71 -5 -7 3 -35 -1 -61 -9 -27 -8 -50 -15 -53 -15 -2 0
27 32 65 70 62 62 68 72 58 89 -9 14 -9 21 -1 23 6 2 12 21 13 43 2 28 10 45
30 62 15 13 26 25 24 27 -2 2 -13 8 -24 14 -19 11 -18 11 7 12 15 0 30 5 33
10 4 6 -23 10 -74 10 -45 0 -81 2 -81 4 0 3 24 29 53 58 30 30 59 64 66 76 12
23 12 23 -16 9 -15 -8 -46 -29 -68 -47 -64 -51 -153 -110 -191 -126 -32 -13
-34 -13 -34 5 0 15 8 21 33 23 37 4 39 22 2 26 -16 2 -25 10 -25 21 0 18 76
131 88 131 10 0 102 90 113 112 14 26 7 23 -42 -18 -24 -20 -63 -49 -87 -66
l-44 -30 18 33 c9 19 42 68 73 109 73 97 76 101 55 93 -13 -5 -15 -3 -9 8 5 8
-16 -11 -47 -41 -30 -30 -66 -60 -79 -66 -64 -30 -110 -47 -115 -41 -11 10 83
132 133 174 26 22 69 54 95 70 51 32 55 52 6 27 -16 -9 -36 -13 -44 -10 -10 4
-13 2 -8 -7 5 -8 2 -7 -9 2 -9 7 -17 9 -17 3 0 -5 -7 -13 -16 -16 -10 -4 -13
-2 -8 6 4 6 -28 -8 -72 -31 l-79 -43 55 56 c63 65 49 75 -21 16 -26 -22 -50
-40 -53 -40 -10 0 -2 24 11 35 15 13 83 150 83 168 0 30 -14 24 -40 -16 -14
-23 -42 -57 -61 -76 -41 -41 -179 -151 -189 -151 -11 0 -19 64 -9 68 5 2 16
10 23 18 8 8 19 14 25 14 14 0 14 15 0 63 -7 26 -15 37 -26 35 -11 -2 -21 11
-31 40 -16 49 -11 63 16 39 22 -20 52 -22 52 -4 0 6 -9 26 -20 44 -11 18 -15
35 -10 38 14 9 52 -14 44 -27 -4 -7 -3 -8 4 -4 17 10 15 27 -5 43 -10 8 -12
12 -5 8 7 -4 3 11 -9 35 -19 37 -20 42 -6 58 8 9 19 29 22 45 7 25 5 27 -23
27 -29 0 -102 -25 -102 -36 0 -3 5 -2 10 1 19 12 10 -52 -10 -70 -11 -10 -17
-21 -15 -26 3 -4 -6 -16 -19 -27 -25 -19 -26 -36 -2 -110 7 -21 5 -23 -12 -18
-34 11 -53 -3 -48 -35 5 -36 -7 -38 -22 -4 -10 21 -15 23 -36 15 -17 -6 -27
-6 -32 1 -4 7 -18 -2 -36 -21 -16 -18 -31 -30 -34 -27 -9 9 67 107 82 107 19
0 30 30 15 39 -14 9 -17 38 -7 69 12 36 -7 25 -36 -21 -24 -38 -83 -102 -64
-69 4 6 5 12 3 12 -3 0 -24 -34 -48 -75 -23 -41 -46 -75 -50 -75 -3 0 -4 20
-2 44 5 37 2 45 -13 48 -13 3 -24 -5 -34 -25 -8 -16 -30 -38 -48 -49 l-33 -21
7 28 c5 20 4 26 -5 21 -25 -16 -8 13 54 89 145 178 164 204 147 198 -15 -6
-16 -5 -3 13 8 10 -16 -10 -54 -46 -38 -36 -73 -69 -77 -75 -4 -5 -8 -6 -8 -2
0 4 -11 -4 -24 -18 -14 -15 -30 -24 -36 -20 -6 4 -17 2 -25 -5 -22 -18 -29 39
-10 91 36 98 33 100 -46 30 -56 -50 -82 -57 -103 -30 -20 25 -63 40 -75 25 -6
-7 -8 -16 -4 -19 3 -4 1 -12 -5 -19 -7 -9 -1 -32 20 -81 24 -52 29 -72 21 -89
-8 -19 -12 -14 -31 39 -13 36 -38 77 -64 104 -23 24 -51 64 -63 89 -26 54
-113 153 -127 144 -5 -4 -4 -13 5 -22 8 -10 18 -24 22 -32 8 -13 7 -13 -8 -1
-14 11 -17 11 -17 -1 0 -7 6 -22 13 -33 7 -11 13 -38 12 -60 -4 -121 -9 -129
-39 -65 -17 34 -66 93 -66 78 0 -3 14 -35 30 -71 17 -36 33 -82 37 -103 l5
-39 -22 30 c-13 17 -36 40 -51 53 -27 22 -30 22 -45 7 -14 -14 -15 -19 -1 -48
16 -34 40 -147 33 -155 -5 -5 -65 60 -66 71 -1 20 -19 3 -22 -20 -4 -40 -19
-33 -51 23 -31 53 -75 104 -90 104 -5 0 -7 -6 -4 -13 5 -14 -9 -106 -18 -115
-2 -3 -11 1 -20 8 -26 22 -27 5 -1 -41 13 -24 27 -59 31 -78 7 -31 5 -33 -11
-26 -11 4 -33 13 -49 19 -17 6 -46 27 -64 46 -22 24 -31 28 -26 15 4 -11 9
-32 11 -47 3 -27 2 -26 -39 17 -24 25 -52 45 -62 45 -17 0 -17 -2 3 -20 12
-12 19 -27 15 -36 -3 -8 3 -25 14 -37 52 -57 56 -98 6 -59 -21 16 -55 41 -75
56 -21 15 -38 31 -38 35 0 4 53 64 119 132 65 68 119 127 120 132 0 4 4 7 9 8
20 3 61 42 56 52 -4 7 -4 9 1 5 11 -11 47 11 39 24 -4 6 -3 8 3 5 13 -8 75 37
65 47 -4 4 -2 7 3 6 20 -4 36 0 31 8 -3 5 0 9 7 9 7 0 44 18 82 40 85 49 207
104 295 133 164 53 430 75 610 48 41 -6 89 -11 105 -12 17 0 33 -5 36 -10 4
-5 18 -8 33 -8 14 0 26 -5 26 -10 0 -5 9 -6 20 -3 12 4 20 2 20 -5 0 -6 5 -8
10 -5 6 3 10 1 10 -5 0 -7 6 -10 14 -7 8 3 16 3 18 -2 6 -13 160 -81 171 -74
5 3 7 2 4 -4 -3 -5 8 -18 26 -28 188 -107 404 -293 549 -474 206 -256 414
-669 498 -990 6 -23 13 -41 16 -39 13 13 -136 438 -192 550 -24 47 -34 89 -14
58 7 -10 10 -11 10 -2 0 7 -7 15 -15 18 -8 4 -13 10 -10 14 3 4 -2 11 -11 14
-9 4 -14 13 -10 22 4 10 2 13 -6 8 -7 -5 -9 -2 -5 9 3 9 0 18 -9 21 -9 3 -12
10 -9 16 3 5 2 10 -2 10 -9 0 -54 69 -55 85 -1 6 -8 15 -17 22 -9 7 -12 13 -7
13 6 0 1 7 -10 15 -10 8 -15 15 -10 15 6 0 1 7 -10 16 -10 8 -12 13 -4 9 8 -4
4 3 -10 15 -14 12 -18 19 -10 15 8 -4 5 2 -7 13 -13 11 -23 24 -23 29 0 4 -16
25 -36 46 -19 20 -33 37 -29 37 10 0 -63 80 -190 205 -237 237 -540 398 -844
449 -126 21 -346 19 -476 -4z m765 -314 c0 -3 -4 -8 -10 -11 -5 -3 -10 -1 -10
4 0 6 5 11 10 11 6 0 10 -2 10 -4z m-886 -266 c6 -45 6 -45 -9 -15 -8 17 -14
46 -14 65 0 28 2 31 8 15 5 -11 11 -40 15 -65z m356 -64 c0 -2 -8 -10 -17 -17
-16 -13 -17 -12 -4 4 13 16 21 21 21 13z m230 -24 c0 -13 -12 -22 -22 -16 -10
6 -1 24 13 24 5 0 9 -4 9 -8z m-310 -62 c0 -5 -2 -10 -4 -10 -3 0 -8 5 -11 10
-3 6 -1 10 4 10 6 0 11 -4 11 -10z m-670 -25 c0 -8 -2 -15 -4 -15 -2 0 -6 7
-10 15 -3 8 -1 15 4 15 6 0 10 -7 10 -15z m937 -77 c-3 -8 -6 -5 -6 6 -1 11 2
17 5 13 3 -3 4 -12 1 -19z m-1497 -14 c0 -8 -5 -12 -10 -9 -6 4 -8 11 -5 16 9
14 15 11 15 -7z m1450 1 c0 -2 -6 -5 -13 -8 -8 -3 -14 1 -14 8 0 7 6 11 14 8
7 -3 13 -6 13 -8z m-409 -58 c-10 -9 -11 -8 -5 6 3 10 9 15 12 12 3 -3 0 -11
-7 -18z m-1077 -58 c27 -21 61 -77 53 -86 -3 -2 -18 2 -34 10 -16 9 -45 18
-65 22 l-37 7 16 34 c19 40 30 42 67 13z m1246 -3 c0 -3 -4 -8 -10 -11 -5 -3
-10 -1 -10 4 0 6 5 11 10 11 6 0 10 -2 10 -4z m-1283 -105 c32 -47 29 -53 -17
-28 -32 18 -41 20 -52 9 -10 -10 -10 -18 3 -40 9 -15 22 -26 29 -24 14 3 80
-56 80 -71 0 -5 -8 -7 -18 -5 -15 4 -17 0 -14 -23 3 -23 0 -29 -22 -35 -32 -8
-34 -26 -4 -39 13 -6 27 -21 31 -35 8 -23 1 -33 -67 -103 -66 -67 -80 -77
-107 -75 -39 4 -50 -17 -15 -26 21 -5 25 -11 23 -34 -2 -15 -7 -35 -11 -45 -5
-11 -2 -27 10 -45 11 -15 19 -42 20 -60 1 -18 10 -42 20 -53 16 -18 26 -20 66
-15 48 7 48 6 48 -22 0 -16 3 -32 7 -36 10 -9 3 -98 -8 -112 -13 -16 1 -46 18
-39 11 4 13 1 8 -12 -5 -10 -10 -33 -13 -51 -3 -25 -14 -40 -44 -59 -48 -32
-48 -59 0 -57 17 1 32 0 32 -3 0 -2 -13 -24 -30 -48 -16 -24 -30 -48 -30 -54
0 -5 -52 -49 -115 -96 -63 -47 -143 -112 -178 -143 -112 -103 -101 -112 -94
83 17 470 129 925 327 1328 60 121 75 130 117 68z m1160 -22 c192 -91 338
-350 303 -536 -52 -286 -407 -266 -607 36 -106 159 -114 368 -20 469 73 79
199 91 324 31z m-1053 -25 c12 -32 -26 -5 -49 35 -5 9 0 8 18 -4 14 -9 28 -23
31 -31z m2001 -13 c3 -5 1 -12 -5 -16 -5 -3 -10 1 -10 9 0 18 6 21 15 7z m-55
-25 c0 -3 -4 -8 -10 -11 -5 -3 -10 -1 -10 4 0 6 5 11 10 11 6 0 10 -2 10 -4z
m-158 -89 c157 -81 241 -304 168 -446 -28 -56 -71 -81 -139 -81 -104 0 -208
79 -265 200 -42 90 -48 204 -14 270 49 96 137 116 250 57z m-1790 -47 c10 0
18 -4 18 -10 0 -12 -2 -12 -34 0 -14 5 -26 15 -26 22 0 9 3 9 12 0 7 -7 20
-12 30 -12z m65 -175 c9 -25 -2 -27 -22 -5 -17 18 -17 20 -1 20 9 0 19 -7 23
-15z m-107 -40 c0 -8 -7 -15 -16 -15 -14 0 -14 3 -4 15 7 8 14 15 16 15 2 0 4
-7 4 -15z m132 -17 c-7 -7 -12 -8 -12 -2 0 14 12 26 19 19 2 -3 -1 -11 -7 -17z
m-282 -94 c0 -8 -4 -12 -10 -9 -5 3 -10 10 -10 16 0 5 5 9 10 9 6 0 10 -7 10
-16z m14 -140 c4 -10 1 -14 -6 -12 -15 5 -23 28 -10 28 5 0 13 -7 16 -16z m56
-14 c0 -5 -5 -10 -11 -10 -5 0 -7 5 -4 10 3 6 8 10 11 10 2 0 4 -4 4 -10z
m257 -162 c-3 -8 -6 -5 -6 6 -1 11 2 17 5 13 3 -3 4 -12 1 -19z m-167 8 c0 -3
-4 -8 -10 -11 -5 -3 -10 -1 -10 4 0 6 5 11 10 11 6 0 10 -2 10 -4z m2210 -90
c0 -11 -19 -15 -25 -6 -3 5 1 10 9 10 9 0 16 -2 16 -4z m-1970 -107 c0 -11 -4
-17 -10 -14 -5 3 -10 13 -10 21 0 8 5 14 10 14 6 0 10 -9 10 -21z m-229 -346
c-12 -20 -14 -14 -5 12 4 9 9 14 11 11 3 -2 0 -13 -6 -23z m2043 -15 c-3 -5
-12 -2 -20 6 -20 21 -17 28 5 14 11 -7 17 -16 15 -20z m-1974 -3 c-10 -12 -9
-20 4 -40 9 -14 20 -25 25 -25 14 0 31 26 23 36 -4 5 5 -1 19 -14 29 -25 34
-50 10 -48 -9 1 -20 -9 -25 -21 -6 -12 -23 -25 -40 -30 -49 -14 -42 -30 11
-27 58 4 116 -10 134 -32 12 -15 9 -16 -38 -9 -56 7 -113 -1 -113 -16 0 -5 23
-9 51 -9 56 0 58 -14 4 -24 -21 -4 -51 -22 -73 -43 -20 -19 -49 -40 -65 -45
-39 -14 -26 -22 31 -20 26 1 85 -4 132 -11 82 -12 85 -14 82 -37 -5 -41 -24
-76 -45 -86 -11 -5 -25 -17 -31 -27 -9 -15 -6 -22 17 -38 15 -12 25 -25 21
-30 -8 -14 20 -11 35 4 12 10 13 9 7 -7 -6 -17 -2 -18 36 -13 46 6 81 37 71
62 -8 22 15 18 29 -5 7 -11 19 -20 27 -20 14 0 12 -11 -10 -66 -13 -33 -6 -70
11 -59 5 3 10 14 10 23 0 25 30 64 45 58 7 -2 22 2 34 10 16 12 20 22 15 42
l-6 27 21 -25 c33 -40 34 -56 7 -83 -18 -18 -28 -21 -35 -14 -8 8 -16 6 -28
-6 -16 -16 -16 -18 7 -34 14 -10 29 -17 33 -15 5 1 6 -2 3 -7 -3 -5 1 -14 9
-21 8 -7 15 -20 15 -30 0 -27 -37 -68 -69 -75 -39 -8 -60 -33 -40 -46 8 -5 23
-7 33 -5 14 4 50 -27 138 -116 147 -151 152 -162 113 -279 -49 -148 -105 -282
-155 -369 -115 -202 -159 -313 -167 -417 -5 -58 -9 -73 -22 -73 -9 1 -70 12
-136 25 -140 28 -125 16 -263 220 -247 365 -427 870 -481 1355 -24 204 -24
188 0 195 28 9 219 138 243 163 16 19 20 20 33 6 9 -8 22 -13 29 -10 7 3 16 1
19 -4 9 -14 41 -12 53 3 14 16 24 107 13 107 -18 0 2 38 31 60 26 19 30 20 25
6 -4 -10 -4 -28 -1 -42 5 -18 13 -24 33 -24 20 1 33 12 61 55 19 30 38 55 43
55 5 0 4 -7 -3 -15z m223 -225 c-8 -9 -33 33 -33 54 1 16 5 13 20 -14 10 -19
16 -37 13 -40z m1625 -26 c2 -1 -6 -19 -18 -41 l-21 -38 6 48 c4 30 2 47 -4
47 -6 0 -11 5 -11 12 0 6 10 3 23 -8 12 -10 23 -20 25 -20z m352 -304 c0 -5
-4 -10 -10 -10 -5 0 -10 5 -10 10 0 6 5 10 10 10 6 0 10 -4 10 -10z m-180
-130 c0 -15 -28 -19 -39 -6 -6 7 -8 15 -5 18 7 8 44 -2 44 -12z m-1430 -63 c0
-6 -9 -2 -20 8 -11 10 -17 22 -13 28 6 10 33 -19 33 -36z m1060 -37 c0 -5 -4
-10 -10 -10 -5 0 -10 5 -10 10 0 6 5 10 10 10 6 0 10 -4 10 -10z m-900 -40 c0
-5 -2 -10 -4 -10 -3 0 -8 5 -11 10 -3 6 -1 10 4 10 6 0 11 -4 11 -10z m-160
-64 c9 -12 8 -15 -9 -13 -11 0 -18 4 -15 8 2 4 -2 10 -8 12 -9 4 -7 6 3 6 9 1
22 -5 29 -13z m11 -43 c13 -16 12 -17 -3 -4 -10 7 -18 15 -18 17 0 8 8 3 21
-13z m1345 -50 c-10 -10 -19 5 -10 18 6 11 8 11 12 0 2 -7 1 -15 -2 -18z
m-1375 -20 c13 -16 12 -17 -3 -4 -10 7 -18 15 -18 17 0 8 8 3 21 -13z m510
-378 c-24 -77 -28 -126 -9 -107 16 16 31 15 22 0 -6 -10 -4 -10 7 -2 8 6 23
14 33 18 19 6 19 6 3 -12 -9 -10 -17 -23 -17 -28 0 -5 16 14 35 41 19 28 49
71 67 97 31 45 48 58 48 39 0 -4 -8 -19 -19 -32 -72 -93 -132 -323 -90 -350 8
-5 17 -9 20 -9 15 0 67 80 79 123 17 61 47 80 79 48 17 -17 25 -19 47 -10 22
8 92 5 100 -4 1 -1 -11 -36 -27 -77 -17 -41 -33 -104 -36 -140 -6 -60 -5 -64
11 -51 9 8 22 34 28 60 6 25 13 40 16 33 8 -24 28 -10 65 44 31 45 41 53 53
43 7 -6 12 -15 9 -19 -3 -4 5 -11 18 -14 22 -6 22 -7 3 -21 -11 -8 -15 -15 -9
-15 5 0 18 10 29 22 12 14 14 18 4 13 -8 -4 -12 -4 -7 0 21 24 37 12 37 -26 0
-53 29 -60 99 -25 28 14 51 23 51 19 0 -3 7 0 15 7 8 6 19 9 24 6 5 -4 19 13
30 36 26 54 42 79 60 94 9 7 12 20 7 37 -20 80 31 -9 189 -327 112 -227 182
-356 193 -359 9 -3 1 -5 -19 -6 -20 0 -65 -4 -100 -7 -53 -5 -62 -4 -51 7 17
18 15 48 -3 55 -21 8 -48 -22 -40 -46 5 -15 0 -21 -22 -27 -15 -4 -255 -8
-533 -8 -465 0 -520 2 -690 23 -275 34 -324 42 -333 51 -5 5 -9 45 -9 90 l-1
80 83 138 c109 180 149 238 228 337 37 44 88 112 114 151 39 56 56 72 86 80
20 6 38 8 40 4 2 -4 -6 -38 -17 -74z m239 -105 c0 -5 -5 -10 -11 -10 -5 0 -7
5 -4 10 3 6 8 10 11 10 2 0 4 -4 4 -10z"/>
<path d="M2114 7035 c-3 -14 -12 -25 -19 -25 -23 0 -28 -20 -15 -59 11 -34 14
-36 56 -38 43 -1 44 -1 44 32 0 48 -11 95 -21 89 -5 -3 -12 2 -15 10 -9 24
-23 19 -30 -9z"/>
<path d="M2053 6864 c-9 -23 11 -38 26 -20 13 16 7 36 -10 36 -5 0 -12 -7 -16
-16z"/>
<path d="M2115 6770 c-4 -6 1 -21 11 -33 11 -12 20 -24 21 -26 3 -5 33 20 33
28 0 14 -59 41 -65 31z"/>
<path d="M3684 7290 c-29 -11 -36 -24 -36 -68 0 -40 37 -82 73 -82 30 0 59 36
59 74 0 57 -49 95 -96 76z"/>
<path d="M4080 7293 c-24 -10 -39 -36 -39 -68 0 -34 14 -56 46 -73 31 -17 41
-15 68 13 33 33 32 70 -4 106 -29 29 -42 33 -71 22z"/>
<path d="M2190 6020 c0 -11 5 -20 11 -20 5 0 7 -5 4 -10 -3 -6 1 -13 10 -16
11 -4 26 3 43 19 28 29 25 45 -6 28 -15 -8 -23 -7 -32 4 -17 21 -30 19 -30 -5z"/>
<path d="M2186 5878 c-31 -43 -18 -76 20 -51 27 17 31 45 10 62 -11 10 -17 7
-30 -11z"/>
<path d="M2264 5725 c-4 -9 -2 -21 4 -27 15 -15 44 -1 40 19 -4 23 -36 29 -44
8z"/>
<path d="M2564 5628 c-13 -43 27 -84 51 -51 10 14 16 15 27 5 17 -14 28 -6 28
18 0 41 -94 66 -106 28z"/>
<path d="M2572 5438 c2 -12 11 -24 21 -26 14 -3 18 1 15 20 -2 12 -11 24 -21
26 -14 3 -18 -1 -15 -20z"/>
<path d="M2787 5349 c-26 -15 -21 -39 8 -39 18 0 25 5 25 19 0 25 -11 32 -33
20z"/>
<path d="M2192 5303 c3 -19 48 -32 48 -14 0 10 -31 31 -45 31 -4 0 -5 -8 -3
-17z"/>
<path d="M2780 5130 c0 -13 5 -20 13 -17 6 2 12 10 12 17 0 7 -6 15 -12 18 -8
2 -13 -5 -13 -18z"/>
<path d="M2777 4983 c-3 -5 -2 -15 2 -22 7 -10 10 -10 16 -1 4 6 3 16 -3 22
-5 5 -12 6 -15 1z"/>
<path d="M2191 4901 c-7 -5 -10 -14 -7 -20 11 -17 23 -13 29 9 6 22 0 25 -22
11z"/>
<path d="M2450 4505 c-18 -21 -8 -50 18 -53 25 -4 62 23 62 43 0 26 -60 34
-80 10z"/>
<path d="M3491 4734 c-31 -13 -33 -16 -20 -29 12 -13 19 -13 42 -3 26 13 35
32 19 42 -4 2 -23 -2 -41 -10z"/>
<path d="M3742 4555 c-25 -54 -4 -93 43 -81 28 7 41 41 31 81 -9 36 -58 35
-74 0z"/>
<path d="M4355 4534 c-25 -27 -30 -58 -19 -102 7 -26 48 -40 68 -23 10 8 17 6
30 -8 12 -13 14 -21 6 -26 -14 -9 -3 -25 19 -25 27 0 76 49 63 62 -8 8 -15 8
-25 -1 -11 -9 -17 -8 -26 2 -8 11 -6 18 8 31 12 11 19 31 19 52 0 33 -11 44
-23 24 -5 -8 -11 -7 -21 1 -12 10 -19 7 -39 -11 l-24 -23 6 37 c7 44 -8 47
-42 10z"/>
<path d="M4137 4512 c-28 -19 -27 -32 4 -32 10 0 23 9 29 19 19 37 10 40 -33
13z"/>
<path d="M3699 4254 c-10 -13 -10 -17 2 -25 20 -13 34 -6 37 19 4 26 -19 30
-39 6z"/>
<path d="M2410 8670 c0 -23 22 -27 39 -6 9 11 8 15 -5 20 -26 10 -34 7 -34
-14z"/>
<path d="M2373 8594 c-8 -21 19 -46 40 -38 23 8 21 31 -2 44 -26 13 -31 13
-38 -6z"/>
<path d="M3159 8525 c17 -33 31 -51 31 -40 0 6 -10 21 -21 35 -13 17 -17 18
-10 5z"/>
<path d="M2371 8428 c-8 -23 -8 -41 0 -65 12 -38 16 -39 58 -15 40 22 40 51 1
85 -38 35 -46 34 -59 -5z"/>
<path d="M1813 8314 c-9 -24 14 -64 36 -64 30 0 43 32 25 58 -18 26 -52 29
-61 6z"/>
<path d="M6820 7874 c-13 -33 -13 -124 0 -124 5 0 12 12 15 28 4 15 10 46 16
69 12 54 12 53 -6 53 -9 0 -20 -12 -25 -26z"/>
<path d="M6840 7735 c0 -10 7 -15 18 -13 21 4 19 22 -2 26 -10 2 -16 -3 -16
-13z"/>
<path d="M2101 7691 c-11 -19 -6 -51 8 -51 18 1 32 20 29 40 -4 31 -24 36 -37
11z"/>
<path d="M6576 7593 c-12 -13 -6 -53 9 -53 9 0 15 9 15 24 0 26 -12 40 -24 29z"/>
<path d="M5350 7581 c0 -6 4 -13 10 -16 6 -3 7 1 4 9 -7 18 -14 21 -14 7z"/>
<path d="M1983 7553 c-18 -7 -16 -33 2 -33 8 0 15 9 15 20 0 11 -1 20 -2 19
-2 0 -9 -3 -15 -6z"/>
<path d="M6591 7484 c0 -11 3 -14 6 -6 3 7 2 16 -1 19 -3 4 -6 -2 -5 -13z"/>
<path d="M5400 7475 c0 -5 5 -17 10 -25 5 -8 10 -10 10 -5 0 6 -5 17 -10 25
-5 8 -10 11 -10 5z"/>
<path d="M6047 7323 c-11 -10 -8 -41 4 -49 17 -10 32 12 24 35 -6 21 -16 26
-28 14z"/>
<path d="M6050 7240 c0 -5 7 -10 16 -10 8 0 12 5 9 10 -3 6 -10 10 -16 10 -5
0 -9 -4 -9 -10z"/>
<path d="M6782 7181 c-18 -11 -11 -45 9 -49 19 -4 49 23 49 44 0 15 -37 19
-58 5z"/>
<path d="M6790 6674 c0 -8 5 -12 10 -9 6 4 8 11 5 16 -9 14 -15 11 -15 -7z"/>
<path d="M5648 6629 c-7 -4 -15 -6 -19 -3 -10 6 -5 -24 7 -36 12 -12 104 19
104 36 0 14 -70 16 -92 3z"/>
<path d="M5313 6617 c-37 -11 -43 -32 -14 -42 22 -7 61 14 61 32 0 18 -12 21
-47 10z"/>
<path d="M1678 6546 c-14 -20 -15 -26 -4 -42 12 -15 17 -16 45 -5 33 14 42 41
14 41 -14 0 -15 2 -5 9 11 7 10 10 -3 15 -25 9 -28 8 -47 -18z"/>
<path d="M5640 6515 c0 -11 7 -15 23 -13 12 2 22 8 22 13 0 6 -10 11 -22 13
-16 2 -23 -2 -23 -13z"/>
<path d="M5622 6204 c-27 -19 -28 -40 -3 -47 15 -4 22 2 30 24 12 35 2 43 -27
23z"/>
<path d="M1544 5805 c-3 -8 -3 -19 1 -25 11 -19 33 -10 37 15 4 20 1 25 -14
25 -10 0 -21 -7 -24 -15z"/>
<path d="M5592 5680 c0 -14 2 -19 5 -12 2 6 2 18 0 25 -3 6 -5 1 -5 -13z"/>
<path d="M1540 5656 c0 -9 7 -12 20 -9 11 3 20 9 20 14 0 5 -9 9 -20 9 -11 0
-20 -6 -20 -14z"/>
<path d="M4760 5480 c0 -5 5 -10 10 -10 6 0 10 -7 10 -15 0 -8 4 -15 9 -15 14
0 33 28 26 40 -8 13 -55 13 -55 0z"/>
<path d="M6250 4865 c-11 -29 -5 -51 17 -59 16 -6 42 19 43 41 1 46 -44 60
-60 18z"/>
<path d="M1866 4747 c-26 -21 -27 -24 -11 -31 20 -7 55 18 55 41 0 19 -11 16
-44 -10z"/>
<path d="M6836 4423 c-3 -4 -12 -8 -19 -9 -7 -1 -38 -9 -71 -19 -49 -14 -60
-15 -67 -4 -7 11 -9 10 -9 -4 0 -10 -12 -22 -27 -28 -36 -13 -103 -59 -103
-71 0 -4 11 -6 25 -2 21 5 25 3 25 -15 0 -12 7 -36 16 -53 15 -30 15 -52 -1
-118 -5 -18 -4 -21 3 -11 7 10 10 -15 11 -80 0 -52 5 -108 10 -126 12 -41 2
-316 -11 -288 -7 16 -7 15 -3 -5 4 -14 8 -101 11 -195 2 -93 9 -224 14 -290 5
-66 11 -196 14 -290 3 -124 2 -147 -3 -85 -8 82 -53 279 -71 310 -14 23 -12 6
20 -140 16 -74 26 -138 24 -142 -3 -5 2 -60 11 -124 17 -115 14 -242 -6 -254
-5 -4 -11 -22 -14 -40 -4 -29 -3 -31 4 -10 6 17 9 -20 9 -110 0 -74 3 -152 7
-173 5 -28 3 -44 -10 -64 -22 -34 -23 -78 -2 -228 20 -152 26 -215 19 -215 -2
0 -11 8 -18 17 -11 16 -13 16 -19 -9 -4 -15 -5 -33 -2 -40 3 -7 6 0 6 16 1 21
4 27 12 19 18 -18 12 -66 -14 -118 -31 -63 -50 -121 -44 -138 2 -6 11 1 18 18
8 17 22 39 32 50 11 11 23 30 28 43 5 13 13 20 19 17 14 -8 -3 -38 -55 -100
-51 -60 -47 -74 30 -99 28 -9 37 -14 20 -12 -16 3 -39 8 -49 12 -14 5 -17 4
-12 -4 5 -8 -2 -12 -21 -13 -15 0 -37 -4 -48 -9 -14 -5 -2 -8 38 -8 31 0 82
-6 113 -13 52 -12 55 -14 38 -27 -17 -13 -16 -14 17 -8 38 7 102 -10 93 -25
-3 -5 3 -9 13 -10 13 -1 11 -3 -7 -9 -24 -8 -24 -8 6 -9 17 -1 57 -16 89 -35
31 -19 71 -38 87 -41 23 -5 27 -9 17 -16 -10 -6 -2 -9 24 -9 30 0 37 -4 37
-20 0 -11 8 -23 18 -27 9 -3 25 -15 35 -27 l18 -21 -10 22 c-6 12 -11 31 -11
42 0 18 7 20 78 23 66 3 73 5 52 14 -14 6 -36 14 -50 18 -21 5 -20 3 5 -9 30
-14 30 -14 -27 -15 -35 0 -58 4 -58 11 0 5 5 7 10 4 6 -3 10 -2 10 4 0 5 8 12
18 14 15 4 15 5 -2 6 -18 1 -19 8 -13 117 3 64 3 113 -1 109 -4 -3 -12 9 -18
27 l-12 33 -12 -33 c-7 -17 -19 -32 -27 -32 -11 0 -9 7 7 31 28 38 16 53 -14
16 l-22 -27 -72 24 c-39 14 -84 32 -100 41 -32 19 -62 84 -63 140 -1 38 -2 38
-8 10 -7 -30 -7 -30 -18 15 -22 83 -24 135 -8 245 17 123 19 183 5 150 -8 -18
-9 -18 -9 -2 -1 10 6 34 14 54 19 45 19 66 0 33 -13 -22 -14 -23 -14 -5 0 11
6 37 13 57 8 21 10 35 5 32 -14 -8 2 176 18 215 8 21 15 86 18 160 5 151 -1
149 -10 -3 -5 -82 -10 -105 -17 -92 -6 11 -8 51 -5 95 3 42 2 96 -3 121 l-9
45 2 -53 c1 -29 -2 -52 -8 -52 -6 0 -9 -51 -8 -137 1 -86 -2 -132 -7 -123 -10
15 -6 507 3 517 3 3 8 -17 12 -44 4 -26 13 -61 21 -78 l14 -30 0 26 c0 15 2
42 5 60 l5 34 -13 -35 -14 -35 -8 50 c-5 28 -9 149 -10 270 0 121 -4 225 -7
231 -10 15 1 243 11 263 5 9 7 46 4 81 -3 51 -2 62 7 50 9 -12 10 -5 6 32 -3
26 4 125 15 220 11 95 22 193 25 218 l4 45 -15 -45 c-9 -25 -22 -90 -29 -145
l-14 -100 -1 80 c-1 44 3 116 8 160 21 178 24 238 10 230 -9 -6 -11 -3 -6 9 4
10 7 21 7 24 0 4 5 0 10 -8 7 -11 10 -5 11 25 1 22 1 44 0 48 -1 5 3 6 8 3 5
-4 12 -2 16 4 3 5 1 10 -5 10 -7 0 -10 7 -6 15 6 15 -5 20 -18 8z m-47 -85 c0
-7 -4 -22 -9 -33 -7 -17 -9 -17 -9 -2 -1 9 -9 17 -18 17 -16 1 -16 2 1 15 24
18 36 19 35 3z m-141 -50 c-3 -7 -13 -13 -23 -13 -10 0 -20 6 -22 13 -3 7 5
12 22 12 17 0 25 -5 23 -12z m98 -35 c-10 -26 -18 -8 -9 23 5 21 8 24 11 11 2
-10 1 -25 -2 -34z m54 -48 l-9 -50 3 49 c3 30 1 44 -5 35 -5 -8 -9 -22 -9 -31
0 -10 -4 -18 -10 -18 -13 0 -13 4 5 47 22 51 37 31 25 -32z m-139 38 c0 -10 3
-30 5 -45 3 -16 1 -28 -5 -28 -15 0 -20 27 -8 39 11 11 9 12 -13 15 -5 0 -10
4 -10 9 0 4 0 12 0 17 0 18 30 11 31 -7z m-7 -249 c-5 -67 -10 -101 -15 -89
-17 43 -5 225 13 207 5 -5 6 -56 2 -118z m115 -94 c-5 -9 -8 34 -7 100 l1 115
7 -100 c4 -55 4 -107 -1 -115z m-97 -250 c3 -74 3 -119 1 -100 -9 69 -22 53
-17 -21 3 -55 2 -68 -6 -51 -11 26 -2 328 10 315 4 -4 10 -69 12 -143z m117
58 l-1 -53 -12 35 c-13 36 -11 70 5 70 5 0 9 -24 8 -52z m-11 -93 c-3 -3 -9 2
-12 12 -6 14 -5 15 5 6 7 -7 10 -15 7 -18z m-100 -400 c0 -58 -1 -58 -9 -20
-4 22 -8 69 -7 105 0 64 1 64 9 20 4 -25 7 -72 7 -105z m-6 -208 c-9 -18 -11
-11 -10 38 0 59 0 60 10 22 7 -27 7 -45 0 -60z m25 31 c-2 -13 -4 -5 -4 17 -1
22 1 32 4 23 2 -10 2 -28 0 -40z m-4 -179 c-7 -143 -7 -143 -16 -74 -12 102 0
242 19 222 3 -2 1 -69 -3 -148z m12 -460 c-4 -57 -15 -61 -15 -6 0 26 4 47 9
47 5 0 8 -18 6 -41z m-33 -84 c0 -26 -3 -49 -6 -52 -3 -4 -6 20 -6 52 0 32 3
56 6 53 3 -4 6 -27 6 -53z m108 -245 c-7 -75 -7 -75 -8 30 0 64 3 93 7 75 4
-17 5 -64 1 -105z m-124 -228 c-5 -85 -16 -110 -16 -34 0 27 -3 58 -7 68 -4
11 -2 15 4 11 7 -4 9 10 7 41 -3 42 -3 44 6 17 5 -16 8 -63 6 -103z m81 -294
c-2 -18 -4 -4 -4 32 0 36 2 50 4 33 2 -18 2 -48 0 -65z m75 -170 c-4 -4 -9 7
-9 25 -2 30 -2 31 8 8 5 -14 6 -28 1 -33z m43 -48 c3 -5 1 -10 -4 -10 -6 0
-11 5 -11 10 0 6 2 10 4 10 3 0 8 -4 11 -10z m5 -35 c7 -8 8 -15 2 -15 -5 0
-15 7 -22 15 -7 8 -8 15 -2 15 5 0 15 -7 22 -15z m-207 -9 c21 -16 22 -32 2
-40 -21 -8 -68 11 -60 25 4 6 13 8 21 5 8 -3 11 0 7 10 -6 17 6 18 30 0z m328
-42 c13 -16 12 -16 -7 -6 -11 6 -27 19 -35 28 -13 16 -12 16 7 6 11 -6 27 -19
35 -28z m49 -6 c0 -6 -6 -5 -15 2 -8 7 -15 14 -15 16 0 2 7 1 15 -2 8 -4 15
-11 15 -16z m-315 -8 c3 -5 1 -10 -4 -10 -6 0 -11 5 -11 10 0 6 2 10 4 10 3 0
8 -4 11 -10z m310 -30 c3 -5 1 -10 -4 -10 -6 0 -11 5 -11 10 0 6 2 10 4 10 3
0 8 -4 11 -10z m75 -5 c0 -19 -12 -25 -27 -14 -19 16 -16 28 7 26 11 -1 20 -6
20 -12z m-203 -76 c19 -12 32 -23 30 -26 -9 -8 -56 9 -73 28 -24 26 -1 25 43
-2z m58 0 c20 -12 34 -24 31 -26 -5 -5 -76 35 -76 43 0 7 9 4 45 -17z m135
-10 c0 -6 -4 -7 -10 -4 -5 3 -10 11 -10 16 0 6 5 7 10 4 6 -3 10 -11 10 -16z
m-98 -59 l33 -31 -38 15 c-20 8 -47 22 -59 31 l-22 15 27 0 c16 0 40 -12 59
-30z m145 -12 c-3 -7 -5 -2 -5 12 0 14 2 19 5 13 2 -7 2 -19 0 -25z m-49 -36
c2 -7 -3 -12 -10 -12 -8 0 -15 7 -15 15 0 18 19 15 25 -3z"/>
<path d="M866 4388 c9 -18 28 -48 41 -66 50 -67 64 -127 56 -232 l-8 -95 -6
95 -6 95 1 -112 c1 -63 -3 -106 -7 -100 -5 7 -6 4 -2 -8 3 -11 13 -66 21 -123
11 -78 12 -114 4 -144 -6 -22 -10 -107 -9 -189 2 -154 -3 -195 -15 -112 -9 69
-37 195 -43 190 -2 -3 3 -51 11 -108 48 -332 55 -391 57 -459 2 -41 -3 -111
-11 -155 -12 -77 -15 -290 -3 -329 4 -13 2 -16 -8 -11 -9 6 -10 2 -5 -16 4
-13 10 -96 12 -184 11 -421 12 -389 -4 -360 -19 38 -26 24 -9 -18 14 -31 13
-43 -5 -118 -10 -46 -17 -100 -14 -119 22 -145 25 -220 11 -261 -18 -49 -19
-62 -5 -54 5 3 10 15 10 26 0 10 5 19 10 19 6 0 8 -17 4 -43 -6 -45 -41 -249
-49 -282 -4 -20 -4 -20 10 -1 8 11 15 28 15 37 0 10 4 21 10 24 5 3 10 -2 10
-12 -1 -43 -29 -108 -70 -156 -37 -44 -38 -47 -9 -21 19 17 45 34 59 37 23 6
23 6 -5 -19 -16 -14 -30 -31 -30 -37 -1 -7 -5 -20 -9 -30 -12 -26 0 -32 28
-13 14 9 32 16 41 16 8 0 15 4 15 8 0 5 15 16 34 25 32 15 34 15 39 -3 3 -10
0 -24 -7 -31 -8 -9 -8 -10 1 -5 7 4 15 -12 23 -44 7 -28 16 -50 21 -50 5 0 9
42 9 94 l0 94 34 22 c19 11 43 23 54 25 34 6 146 62 201 99 30 20 60 35 68 32
10 -4 13 9 13 59 0 35 5 67 10 70 6 3 10 30 10 58 0 29 4 69 9 89 7 31 5 40
-10 54 -11 10 -20 15 -22 13 -1 -2 -18 -24 -36 -48 -19 -25 -29 -41 -23 -37 7
4 12 3 12 -3 0 -13 -54 -51 -81 -56 -11 -2 -30 -7 -41 -11 -20 -6 -20 -5 2 27
23 33 22 32 -23 -8 -26 -24 -51 -43 -56 -43 -11 0 -51 53 -51 68 0 6 9 28 21
49 l21 38 -21 -25 c-11 -14 -21 -28 -21 -32 0 -21 -20 -4 -20 17 0 13 -6 57
-12 97 -10 57 -10 72 0 76 6 2 12 8 12 13 0 6 -4 8 -9 5 -10 -7 -21 107 -18
196 1 32 5 52 9 45 4 -7 8 3 8 23 0 25 -3 31 -10 20 -15 -24 -19 -8 -20 95 -2
138 -3 130 16 114 14 -12 15 34 10 531 -4 299 -9 546 -11 549 -3 2 -5 -10 -5
-27 0 -17 -4 -33 -9 -37 -10 -6 -5 100 9 190 l8 50 1 -44 c0 -24 4 -42 7 -38
3 3 3 41 -2 84 -5 56 -9 72 -15 58 -5 -12 -6 -1 -3 30 8 72 13 85 30 78 7 -3
14 0 14 6 0 6 -5 11 -11 11 -6 0 -8 8 -5 18 16 53 14 71 -3 27 l-19 -50 -1 43
c-1 24 2 41 7 39 4 -3 6 35 4 84 -2 50 1 111 7 137 22 100 22 99 12 77 -8 -16
-10 -9 -10 30 -1 28 -8 71 -17 96 -11 29 -14 54 -9 65 7 16 9 15 15 -11 7 -29
8 -29 9 -4 0 15 7 45 15 67 21 58 15 72 -36 92 -52 19 -95 47 -90 57 2 4 -1 9
-7 11 -6 2 -11 -2 -11 -8 0 -7 -13 -4 -33 9 -20 12 -42 18 -55 14 -13 -3 -22
-1 -22 6 0 6 -7 11 -15 11 -14 0 -14 -4 1 -32z m116 -795 c-7 -36 -12 -27 -11
20 0 30 3 36 8 23 4 -11 6 -30 3 -43z m95 -145 c-3 -8 -6 -5 -6 6 -1 11 2 17
5 13 3 -3 4 -12 1 -19z m-100 -270 c-3 -7 -5 -2 -5 12 0 14 2 19 5 13 2 -7 2
-19 0 -25z m110 -230 c-3 -8 -6 -5 -6 6 -1 11 2 17 5 13 3 -3 4 -12 1 -19z
m-2 -425 c-9 -38 -25 -26 -18 15 3 20 5 48 4 62 0 14 2 77 6 140 l8 115 3
-155 c1 -85 0 -165 -3 -177z m22 45 c-2 -13 -4 -3 -4 22 0 25 2 35 4 23 2 -13
2 -33 0 -45z m3 -250 c0 -90 -3 -128 -10 -118 -15 23 -9 250 6 250 2 0 4 -60
4 -132z m-73 -200 c-3 -8 -6 -5 -6 6 -1 11 2 17 5 13 3 -3 4 -12 1 -19z m-71
-377 c0 -91 -4 -141 -9 -128 -5 12 -9 45 -10 72 -1 51 12 205 18 205 2 0 2
-67 1 -149z m121 -98 c-2 -16 -4 -5 -4 22 0 28 2 40 4 28 2 -13 2 -35 0 -50z
m363 -148 c0 -8 -4 -15 -10 -15 -5 0 -7 7 -4 15 4 8 8 15 10 15 2 0 4 -7 4
-15z m-135 -124 c-11 -9 -114 -27 -104 -17 6 6 74 23 99 25 8 1 10 -2 5 -8z
m-354 -132 c-18 -80 -29 -44 -14 45 5 35 7 37 15 17 4 -12 4 -40 -1 -62z m466
9 c-2 -13 -4 -5 -4 17 -1 22 1 32 4 23 2 -10 2 -28 0 -40z m-64 -50 c-13 -12
-30 -18 -44 -16 -22 4 -21 5 14 23 20 10 37 23 38 29 0 6 3 5 6 -3 3 -7 -4
-22 -14 -33z m-83 -38 c0 -5 -5 -10 -11 -10 -5 0 -7 5 -4 10 3 6 8 10 11 10 2
0 4 -4 4 -10z m-110 -25 c0 -7 -53 -55 -72 -66 -14 -7 -18 -6 -18 5 0 8 19 26
43 40 46 28 47 28 47 21z m-150 -109 c0 -8 -7 -17 -16 -20 -30 -11 -37 -6 -19
14 21 23 35 26 35 6z m-60 -29 c0 -2 -12 -14 -27 -28 -20 -18 -24 -19 -13 -4
18 24 40 42 40 32z"/>
<path d="M1087 4384 c-4 -4 -7 -14 -7 -23 0 -11 3 -12 11 -4 6 6 10 16 7 23
-2 6 -7 8 -11 4z"/>
<path d="M840 4215 c0 -5 5 -17 10 -25 5 -8 10 -10 10 -5 0 6 -5 17 -10 25 -5
8 -10 11 -10 5z"/>
<path d="M863 4156 c3 -8 18 -49 33 -91 15 -41 29 -74 31 -72 5 5 -57 177 -64
177 -3 0 -3 -7 0 -14z"/>
<path d="M1151 4048 c-6 -17 -9 -33 -7 -36 3 -2 8 8 12 23 5 20 9 23 15 13 6
-9 9 -7 9 10 0 32 -16 27 -29 -10z"/>
<path d="M1851 4054 c0 -11 3 -14 6 -6 3 7 2 16 -1 19 -3 4 -6 -2 -5 -13z"/>
<path d="M6591 4044 c0 -11 3 -14 6 -6 3 7 2 16 -1 19 -3 4 -6 -2 -5 -13z"/>
<path d="M1560 4030 c0 -5 -3 -9 -7 -9 -22 4 -24 -3 -7 -22 19 -22 19 -22 -5
-9 l-23 12 27 -51 c25 -45 27 -55 19 -93 l-10 -43 -13 40 c-22 67 -50 78 -36
14 4 -19 10 -27 15 -20 7 13 25 -48 30 -104 8 -80 2 -235 -9 -275 -9 -31 -14
-122 -15 -294 -1 -213 -3 -242 -13 -200 -6 27 -12 63 -12 79 -1 17 -6 37 -12
45 -8 12 -9 11 -4 -6 3 -12 7 -63 9 -115 2 -52 6 -132 9 -179 2 -47 2 -65 -2
-40 l-6 45 -12 -75 c-22 -131 -55 -439 -50 -467 2 -18 5 -11 6 19 0 26 6 50
12 54 12 7 6 -306 -8 -386 -6 -36 -9 -18 -14 95 -5 116 -6 107 -3 -54 l3 -194
-54 -79 c-29 -43 -50 -80 -46 -83 5 -2 23 0 42 5 48 14 49 12 6 -11 -51 -27
-40 -35 19 -15 58 20 63 20 38 1 -18 -13 -18 -14 6 -8 13 4 36 12 50 20 14 7
29 13 33 13 5 0 25 7 44 16 26 13 31 19 21 26 -9 7 -5 8 13 4 19 -4 31 1 47
19 17 19 18 25 7 25 -8 0 -15 5 -15 10 0 14 -27 12 -33 -2 -4 -10 -8 -10 -16
2 -5 8 -7 19 -3 25 4 5 5 19 3 30 -2 10 1 53 5 95 7 65 9 70 15 40 5 -27 7
-29 8 -10 0 14 -3 41 -8 60 -14 53 -23 210 -11 185 7 -15 8 -9 4 23 -6 45 12
142 27 142 5 0 9 5 9 12 0 7 12 25 27 40 20 21 37 28 67 29 32 2 35 3 12 6
-27 4 -25 6 30 34 62 31 79 35 69 19 -3 -5 0 -10 8 -10 8 0 22 -18 32 -40 10
-22 20 -38 22 -36 3 2 -3 18 -11 35 -19 35 -20 41 -5 41 11 0 33 -48 45 -96 6
-28 6 -28 -10 -9 -15 18 -15 17 0 -20 9 -22 23 -89 30 -150 15 -125 15 -140 4
-105 -7 22 -8 20 -10 -15 -1 -27 -4 -34 -8 -22 -4 9 -7 -12 -7 -47 0 -55 -4
-68 -25 -92 -14 -15 -19 -24 -11 -19 9 5 12 3 9 -5 -2 -8 -10 -16 -18 -18 -7
-3 -10 -1 -8 4 3 5 2 18 -2 29 -7 17 -9 16 -15 -12 -4 -18 -10 -33 -14 -33 -3
0 -13 -5 -21 -10 -13 -9 -11 -13 10 -31 14 -11 19 -18 13 -14 -7 3 -13 1 -13
-4 0 -15 4 -14 58 8 44 18 225 46 240 38 4 -3 16 5 27 16 18 18 18 19 2 14
-11 -4 -16 -3 -12 3 3 6 13 10 21 10 8 0 14 6 14 13 -1 22 -27 48 -43 41 -15
-5 -28 18 -32 56 -1 8 -5 26 -9 40 -8 24 -8 24 8 5 15 -18 15 -16 1 24 -10 28
-16 89 -17 175 -1 101 -3 116 -7 66 -8 -86 -21 -54 -20 48 1 54 3 70 9 52 6
-18 8 -20 9 -7 1 10 -5 30 -13 45 -10 20 -12 40 -5 77 11 71 11 85 -4 85 -9 0
-17 28 -25 89 -15 111 -15 122 3 91 8 -14 14 -46 15 -72 0 -48 13 -70 24 -42
3 9 5 28 5 42 l-1 27 -9 -30 c-5 -20 -7 -1 -4 56 3 48 1 89 -5 95 -5 5 -10 35
-11 67 -1 32 -6 60 -11 63 -4 3 -8 18 -8 33 0 15 -4 31 -9 36 -10 10 -32 246
-30 319 1 36 2 38 9 16 7 -23 8 -23 9 -3 1 12 -2 29 -5 38 -6 13 -9 14 -16 3
-6 -8 -8 7 -5 45 4 40 2 55 -5 51 -7 -5 -9 1 -5 16 3 13 -1 48 -9 79 -7 30
-14 64 -13 76 1 48 42 -136 42 -190 l0 -60 11 38 c6 22 14 36 18 32 3 -4 -4
27 -16 67 -34 108 -42 202 -21 234 9 14 27 29 41 34 l25 10 -24 22 c-13 13
-29 32 -36 43 -7 11 -10 13 -8 4 4 -14 -3 -15 -46 -11 -29 3 -54 9 -56 15 -2
5 -6 5 -10 -2 -6 -8 -33 -3 -97 20 -49 17 -95 36 -102 42 -8 6 -23 12 -34 14
-10 2 -32 10 -48 18 -34 18 -40 18 -40 5z m95 -62 c21 -18 -22 -6 -45 12 l-25
21 30 -13 c17 -6 34 -15 40 -20z m-70 -7 c3 -5 1 -12 -4 -15 -5 -3 -11 1 -15
9 -6 16 9 21 19 6z m115 -41 c0 -5 -2 -10 -4 -10 -3 0 -8 5 -11 10 -3 6 -1 10
4 10 6 0 11 -4 11 -10z m-104 -150 c5 -60 4 -81 -5 -76 -7 4 -11 39 -11 88 0
45 2 79 5 76 3 -2 8 -42 11 -88z m363 -7 c-1 -42 -2 -44 -9 -21 -7 25 -3 68 6
68 2 0 4 -21 3 -47z m-139 -3 c6 -11 8 -20 6 -20 -3 0 -10 9 -16 20 -6 11 -8
20 -6 20 3 0 10 -9 16 -20z m-11 -37 c17 -25 31 -54 31 -63 0 -10 3 -33 6 -51
6 -33 6 -33 -11 -14 -11 13 -9 7 4 -17 13 -22 23 -61 26 -100 21 -288 24 -625
6 -710 l-12 -58 -42 -1 c-33 0 -38 -2 -22 -9 13 -6 15 -9 5 -9 -8 -1 -26 -4
-40 -7 -21 -5 -22 -4 -10 6 13 10 12 11 -3 6 -84 -27 -91 -17 -94 128 -2 103
3 141 23 190 6 15 4 17 -6 11 -10 -6 -12 -4 -6 10 3 10 11 63 17 119 5 56 17
144 26 196 8 52 16 157 18 232 1 75 5 148 9 162 10 41 40 32 75 -21z m-182 -5
c-3 -8 -6 -5 -6 6 -1 11 2 17 5 13 3 -3 4 -12 1 -19z m253 -35 c0 -22 -2 -25
-10 -13 -13 20 -13 40 0 40 6 0 10 -12 10 -27z m-273 -35 c-3 -7 -5 -2 -5 12
0 14 2 19 5 13 2 -7 2 -19 0 -25z m340 -40 c-3 -8 -6 -5 -6 6 -1 11 2 17 5 13
3 -3 4 -12 1 -19z m-234 -76 c5 -76 4 -83 -15 -93 -21 -11 -21 -10 -14 55 7
70 17 129 21 124 1 -2 5 -40 8 -86z m-103 32 c0 -14 -4 -23 -9 -20 -5 3 -7 15
-4 26 7 28 13 25 13 -6z m-54 -324 l-15 -135 5 145 c3 80 8 161 12 180 l7 35
3 -45 c1 -25 -4 -106 -12 -180z m351 73 c-3 -10 -5 -2 -5 17 0 19 2 27 5 18 2
-10 2 -26 0 -35z m-240 -85 c-2 -13 -4 -5 -4 17 -1 22 1 32 4 23 2 -10 2 -28
0 -40z m240 -35 c-2 -16 -4 -3 -4 27 0 30 2 43 4 28 2 -16 2 -40 0 -55z m80
-45 c-3 -8 -6 -5 -6 6 -1 11 2 17 5 13 3 -3 4 -12 1 -19z m-330 -40 c-3 -8 -6
-5 -6 6 -1 11 2 17 5 13 3 -3 4 -12 1 -19z m370 -160 c-3 -7 -5 -2 -5 12 0 14
2 19 5 13 2 -7 2 -19 0 -25z m-500 -85 c-3 -10 -5 -4 -5 12 0 17 2 24 5 18 2
-7 2 -21 0 -30z m-25 -227 c1 -32 6 -60 10 -62 4 -3 8 -18 8 -33 0 -20 -6 -30
-20 -34 -18 -5 -20 0 -20 48 0 55 10 148 16 142 2 -2 5 -29 6 -61z m15 32 c-3
-7 -5 -2 -5 12 0 14 2 19 5 13 2 -7 2 -19 0 -25z m138 12 c3 -5 1 -10 -4 -10
-6 0 -11 5 -11 10 0 6 2 10 4 10 3 0 8 -4 11 -10z m120 -20 c-11 -5 -31 -8
-45 -8 l-25 0 25 8 c14 4 34 8 45 8 l20 1 -20 -9z m-75 -19 c0 -10 -50 -25
-58 -17 -3 3 6 10 19 15 31 13 39 13 39 2z m145 0 c-6 -5 -23 -12 -40 -16
l-30 -6 25 15 c28 17 60 22 45 7z m-85 -126 c-7 -8 -17 -15 -23 -15 -6 0 -2 7
9 15 25 19 30 19 14 0z m-283 -162 c-2 -27 -3 -5 -3 47 0 52 1 74 3 48 2 -27
2 -69 0 -95z m286 120 c-7 -2 -19 -2 -25 0 -7 3 -2 5 12 5 14 0 19 -2 13 -5z
m-49 -28 c-25 -19 -40 -19 -24 0 7 8 20 15 28 15 13 0 12 -3 -4 -15z m-70 -57
c-16 -18 -30 -35 -31 -37 -2 -2 -3 9 -3 25 0 20 3 25 9 16 6 -10 10 -9 14 7 3
12 13 21 23 21 15 0 13 -6 -12 -32z m-67 -80 c-3 -7 -5 -2 -5 12 0 14 2 19 5
13 2 -7 2 -19 0 -25z m-10 -190 c-2 -24 -4 -7 -4 37 0 44 2 63 4 43 2 -21 2
-57 0 -80z m8 -325 c-5 -15 -35 -18 -35 -4 0 6 5 13 11 16 7 5 9 46 5 123 l-5
117 14 -120 c8 -66 12 -126 10 -132z m12 195 c-3 -7 -5 -2 -5 12 0 14 2 19 5
13 2 -7 2 -19 0 -25z m378 -66 c-10 -10 -16 -12 -13 -7 3 6 8 19 13 30 5 14 9
16 12 7 3 -8 -3 -21 -12 -30z m-420 -202 c3 -5 -1 -10 -10 -10 -9 0 -13 5 -10
10 3 6 8 10 10 10 2 0 7 -4 10 -10z m0 -40 c-3 -5 -12 -10 -18 -10 -7 0 -6 4
3 10 19 12 23 12 15 0z"/>
<path d="M1852 3090 c0 -19 2 -27 5 -17 2 9 2 25 0 35 -3 9 -5 1 -5 -18z"/>
<path d="M1688 3002 c6 -62 12 -67 12 -9 0 25 -4 48 -9 51 -5 3 -6 -16 -3 -42z"/>
<path d="M1862 3005 c0 -16 2 -22 5 -12 2 9 2 23 0 30 -3 6 -5 -1 -5 -18z"/>
<path d="M1872 2945 c0 -16 2 -22 5 -12 2 9 2 23 0 30 -3 6 -5 -1 -5 -18z"/>
<path d="M1682 2900 c0 -19 2 -27 5 -17 2 9 2 25 0 35 -3 9 -5 1 -5 -18z"/>
<path d="M1666 2819 c-8 -42 0 -50 9 -9 4 17 5 34 2 36 -2 3 -7 -10 -11 -27z"/>
<path d="M1183 3960 c0 -41 2 -58 4 -37 2 20 2 54 0 75 -2 20 -4 3 -4 -38z"/>
<path d="M6392 4004 c-15 -16 -36 -19 -27 -4 8 13 4 13 -36 -4 -19 -8 -33 -18
-31 -22 2 -5 -2 -10 -9 -13 -7 -2 -9 1 -5 8 10 15 -2 14 -18 -2 -7 -7 -55 -18
-107 -25 -156 -21 -169 -23 -169 -33 0 -4 -24 -12 -52 -15 -43 -6 -48 -9 -28
-14 19 -5 12 -8 -35 -15 -33 -5 -52 -10 -42 -12 9 -3 17 -10 17 -16 0 -6 15
-26 33 -45 32 -33 32 -33 34 -145 l1 -112 -9 75 c-5 41 -7 87 -5 103 6 32 -9
37 -17 5 -3 -13 -5 -81 -5 -153 1 -74 4 -113 7 -90 6 36 8 32 18 -48 7 -48 9
-95 5 -105 -4 -11 -9 2 -12 38 -4 35 -7 6 -8 -80 -1 -74 -6 -178 -12 -230 -6
-52 -13 -133 -15 -180 l-4 -85 9 65 c5 36 12 76 16 90 7 23 8 21 15 -15 4 -22
9 -83 12 -135 3 -54 3 -73 -1 -43 -13 94 -25 71 -17 -32 4 -55 11 -176 14
-270 4 -93 9 -156 10 -140 l3 30 8 -30 c11 -43 12 -143 1 -149 -5 -4 -12 7
-16 24 -10 45 -29 38 -21 -7 3 -21 6 -44 6 -51 0 -7 5 -10 11 -6 7 4 9 0 6
-12 -3 -11 -11 -49 -17 -86 -10 -53 -17 -69 -32 -74 -16 -5 -18 -8 -7 -15 11
-6 6 -12 -18 -21 -38 -14 -43 -42 -12 -58 11 -7 70 -15 130 -20 60 -4 116 -13
124 -20 8 -6 18 -9 22 -7 5 3 49 -5 98 -18 l90 -23 6 -38 c5 -37 5 -38 10 -10
4 28 5 29 22 12 15 -15 17 -15 17 -2 0 19 16 21 23 4 3 -8 6 -6 6 5 1 9 8 17
17 17 9 0 12 -5 8 -12 -4 -7 -3 -8 4 -4 7 4 16 15 22 26 7 14 6 18 -5 16 -8
-1 -18 -5 -21 -9 -4 -4 -12 -7 -18 -7 -5 0 -1 6 9 14 11 8 23 12 27 10 5 -3 8
0 8 6 0 6 4 9 9 6 5 -3 11 1 15 9 3 8 0 15 -6 15 -7 0 -9 14 -5 38 3 20 3 31
0 24 -4 -10 -8 -8 -19 5 -18 24 -18 47 1 39 8 -3 22 -9 30 -12 11 -4 15 0 15
17 0 17 -3 20 -9 11 -6 -10 -13 -11 -34 -1 -15 7 -27 15 -27 18 0 3 -11 7 -25
7 -14 1 -32 8 -41 14 -8 7 -28 14 -44 15 -17 2 -36 8 -44 14 -8 7 -17 8 -20 3
-7 -12 11 -27 48 -39 17 -5 32 -15 34 -21 4 -13 -78 25 -88 40 -3 4 -23 14
-45 21 -40 14 -108 84 -69 72 12 -4 9 0 -6 9 -14 8 -20 16 -15 16 6 0 4 4 -3
9 -14 8 -15 59 -11 366 1 143 -4 282 -8 223 -2 -27 -8 -48 -14 -48 -13 0 -4
344 11 390 23 75 191 147 203 88 3 -18 5 -15 6 8 0 18 13 47 29 67 l29 35 1
-54 c1 -35 -2 -53 -9 -49 -5 4 -7 16 -4 28 5 16 4 18 -3 8 -6 -8 -15 -10 -23
-5 -11 6 -12 5 -2 -8 7 -8 9 -19 5 -23 -4 -5 -2 -5 5 -1 6 3 14 2 18 -4 16
-25 25 -5 25 56 0 36 5 74 10 85 13 22 -2 26 -20 4 -7 -8 -17 -12 -22 -9 -7 4
-7 9 0 13 5 3 13 17 17 29 6 21 5 23 -13 13 -28 -15 -37 -14 -23 3 18 21 -1
28 -56 21 -26 -4 -66 -3 -88 2 -35 8 -43 15 -68 63 -23 44 -27 63 -23 95 4 22
8 58 9 80 2 22 4 50 5 62 2 26 66 63 116 68 17 2 60 6 94 10 37 3 62 2 58 -3
-3 -5 0 -9 7 -9 7 0 20 -4 30 -8 10 -4 17 -3 17 4 0 6 -8 11 -18 11 -10 0 -24
6 -30 12 -8 8 -39 12 -85 11 l-72 -2 70 14 c96 21 153 24 159 11 2 -6 5 12 5
41 1 28 6 64 11 79 8 19 8 30 0 38 -12 12 -14 29 -2 22 5 -3 9 1 9 10 0 10 -7
12 -20 8 -13 -4 -17 -2 -13 5 4 6 17 12 29 12 20 1 21 2 2 6 -11 3 -22 9 -25
13 -3 4 -11 2 -18 -6z m-37 -64 c-3 -5 -14 -10 -23 -10 -15 0 -15 2 -2 10 20
13 33 13 25 0z m35 -55 c0 -9 -12 -20 -26 -25 -38 -15 -40 -13 -14 15 27 29
40 32 40 10z m-63 -1 c-3 -3 -12 -4 -19 -1 -8 3 -5 6 6 6 11 1 17 -2 13 -5z
m-443 -50 c5 -14 4 -15 -9 -4 -17 14 -19 20 -6 20 5 0 12 -7 15 -16z m486 -14
c0 -5 -6 -10 -12 -10 -7 0 -24 -3 -38 -6 -22 -4 -21 -3 5 10 37 18 45 19 45 6z
m-441 -19 c7 -5 12 -14 9 -21 -2 -7 -10 -4 -22 9 -19 21 -12 28 13 12z m180
-82 c-42 -22 -59 -24 -59 -4 0 16 56 35 79 27 9 -3 2 -12 -20 -23z m-172 -341
c-2 -13 -4 -5 -4 17 -1 22 1 32 4 23 2 -10 2 -28 0 -40z m133 2 c12 -23 12
-24 -3 -11 -10 7 -17 20 -17 29 0 18 3 16 20 -18z m190 -50 c0 -5 -12 -10 -27
-9 l-28 1 25 8 c14 4 26 8 28 9 1 1 2 -3 2 -9z m3 -57 c-7 -2 -21 -2 -30 0
-10 3 -4 5 12 5 17 0 24 -2 18 -5z m-337 -90 c2 -44 1 -51 -5 -28 -10 36 -13
101 -5 92 4 -3 8 -32 10 -64z m115 -44 c-10 -23 -10 -23 -10 7 -1 17 2 34 7
38 11 12 14 -18 3 -45z m23 -12 l-16 -22 6 25 c3 14 6 32 6 40 1 12 3 11 11
-3 7 -13 6 -23 -7 -40z m81 23 c-3 -5 -19 -19 -36 -31 l-31 -22 16 32 c10 19
24 31 37 31 11 0 18 -4 14 -10z m-216 -164 c1 -22 -1 -37 -4 -34 -11 11 -26
120 -19 141 7 18 9 14 15 -23 4 -25 8 -63 8 -84z m18 -228 c-3 -7 -5 -2 -5 12
0 14 2 19 5 13 2 -7 2 -19 0 -25z m0 -380 c-2 -13 -4 -5 -4 17 -1 22 1 32 4
23 2 -10 2 -28 0 -40z m90 -105 c-2 -21 -4 -4 -4 37 0 41 2 58 4 38 2 -21 2
-55 0 -75z m20 -130 c-3 -10 -5 -4 -5 12 0 17 2 24 5 18 2 -7 2 -21 0 -30z
m-17 -39 c0 -8 -5 -12 -10 -9 -6 4 -8 11 -5 16 9 14 15 11 15 -7z m30 -29 c11
-13 10 -14 -4 -9 -9 3 -16 10 -16 15 0 13 6 11 20 -6z m-133 -37 c-3 -8 -6 -5
-6 6 -1 11 2 17 5 13 3 -3 4 -12 1 -19z m143 12 c12 -8 11 -10 -7 -10 -13 0
-23 5 -23 10 0 13 11 13 30 0z m35 -29 c5 0 4 -6 -2 -12 -12 -12 -53 -3 -53
10 0 7 14 8 55 2z m-175 -46 c0 -8 -7 -15 -15 -15 -9 0 -12 6 -9 15 4 8 10 15
15 15 5 0 9 -7 9 -15z m301 -36 c23 -11 39 -22 36 -25 -5 -5 -97 33 -97 41 0
10 21 5 61 -16z m-307 -58 c4 -5 -3 -7 -14 -4 -23 6 -26 13 -6 13 8 0 17 -4
20 -9z m-37 -27 c-3 -3 -12 -4 -19 -1 -8 3 -5 6 6 6 11 1 17 -2 13 -5z m333
-4 c12 -8 11 -10 -7 -10 -13 0 -23 5 -23 10 0 13 11 13 30 0z m-45 -30 c13 -6
15 -9 5 -9 -8 0 -22 4 -30 9 -18 12 -2 12 25 0z m165 -10 c0 -5 -6 -10 -14
-10 -8 0 -18 5 -21 10 -3 6 3 10 14 10 12 0 21 -4 21 -10z"/>
<path d="M6583 3975 c0 -22 2 -30 4 -17 2 12 2 30 0 40 -3 9 -5 -1 -4 -23z"/>
<path d="M1496 3975 c8 -38 20 -60 26 -49 2 5 -4 25 -14 44 -18 35 -18 35 -12
5z"/>
<path d="M1852 3980 c0 -14 2 -19 5 -12 2 6 2 18 0 25 -3 6 -5 1 -5 -13z"/>
<path d="M5682 3878 c-2 -21 -6 -22 -32 -5 -15 8 -23 9 -28 1 -13 -20 -200
-65 -187 -44 3 4 -2 11 -11 14 -29 11 -37 6 -20 -12 15 -18 13 -19 -44 -35
-32 -9 -118 -20 -189 -23 -136 -7 -162 -18 -120 -48 22 -15 20 -45 -5 -75 -16
-20 -36 -114 -27 -124 5 -5 11 5 14 21 3 16 14 32 24 36 10 3 25 9 33 12 8 3
0 -6 -17 -21 -30 -24 -44 -55 -25 -55 4 0 36 20 71 45 43 30 75 45 95 45 l31
-1 -28 -15 c-48 -26 -22 -27 30 -1 29 14 68 24 98 25 l50 1 -45 -24 c-59 -31
-47 -31 24 0 73 32 103 32 117 1 13 -27 6 -68 -15 -88 -7 -8 -17 -30 -21 -49
-4 -19 -15 -49 -26 -66 -10 -18 -29 -70 -41 -115 l-23 -83 -5 55 c-3 36 -7 48
-11 34 -4 -12 -4 -43 -2 -70 4 -40 1 -53 -13 -64 -11 -9 -15 -10 -10 -2 4 6 2
12 -3 12 -6 0 -11 -14 -11 -30 0 -17 -9 -48 -20 -70 -22 -44 -26 -65 -8 -54 6
4 8 3 5 -3 -4 -6 -11 -23 -17 -38 -6 -15 -13 -25 -16 -22 -3 3 -1 14 5 25 6
11 7 31 2 48 l-8 29 -15 -45 -16 -45 -2 50 c-1 28 -5 59 -10 70 -11 25 -12 17
-10 -105 1 -83 -3 -107 -30 -185 -18 -51 -48 -112 -70 -140 -21 -27 -41 -61
-44 -75 l-7 -25 20 25 c11 14 21 29 21 34 0 5 3 6 6 3 4 -4 -20 -51 -52 -104
l-59 -98 -6 40 c-6 46 -15 32 -24 -40 -9 -69 -61 -194 -98 -232 l-30 -32 27
-36 27 -35 -27 0 c-27 0 -27 -1 -8 -15 10 -8 24 -14 29 -15 6 0 3 5 -5 10 -12
8 -12 10 5 10 11 -1 29 -8 40 -16 19 -16 19 -16 -5 -10 -23 5 -23 5 3 -7 15
-7 24 -17 20 -21 -4 -4 28 -6 72 -5 65 2 89 -1 128 -20 27 -12 60 -20 75 -18
24 4 24 4 -5 6 -18 0 -33 5 -33 9 0 5 28 5 62 0 67 -9 88 -18 43 -18 -16 0
-26 -2 -23 -5 3 -3 59 -8 124 -10 65 -3 141 -10 167 -16 27 -6 62 -9 78 -5 26
5 29 3 24 -13 -8 -25 9 -35 34 -21 13 7 18 16 14 27 -5 12 -3 14 7 8 10 -6 11
2 6 39 -6 38 -5 46 8 46 9 0 16 5 16 11 0 5 -5 7 -11 3 -12 -7 -11 4 7 81 6
29 6 29 -10 10 -15 -19 -15 -19 -16 13 0 38 -4 39 -33 11 -35 -33 -85 -51
-146 -50 -66 1 -153 24 -127 34 9 4 28 2 43 -4 21 -8 24 -7 15 4 -9 11 3 17
64 31 104 25 85 33 -26 11 -63 -12 -107 -15 -143 -10 -29 4 -91 6 -139 5 -53
-1 -88 2 -88 8 0 6 6 13 13 15 7 3 5 6 -6 6 -16 1 -16 3 -2 34 l16 32 -20 -25
c-14 -17 -21 -20 -21 -10 0 21 38 119 62 157 10 18 16 38 12 44 -4 7 -3 9 3 6
6 -4 16 6 22 23 5 17 15 30 20 30 6 0 11 5 11 10 0 6 17 55 37 111 27 72 39
95 44 82 6 -14 8 -11 8 12 1 30 6 41 55 130 21 38 23 44 7 26 -28 -31 -26 -20
4 41 29 58 35 94 10 62 -13 -16 -13 -13 1 21 49 120 57 136 65 123 5 -7 9 -20
9 -28 0 -13 -1 -13 -10 0 -8 12 -10 11 -10 -7 0 -42 17 -23 50 55 18 42 43
101 56 130 13 29 18 50 13 46 -15 -9 -4 26 32 105 36 78 37 93 2 26 -14 -27
-28 -45 -30 -38 -2 6 3 26 12 44 10 18 18 41 19 53 3 20 64 196 72 205 21 24
-9 -88 -38 -143 -7 -13 -7 -16 1 -12 14 9 14 -9 1 -34 -9 -16 -8 -18 6 -13 11
4 15 15 11 37 -3 21 4 49 23 86 36 71 75 167 83 205 7 28 6 29 -8 11 -13 -17
-18 -18 -39 -6 -16 8 -26 24 -29 44 -2 17 -5 23 -5 14z m-92 -58 c0 -5 -9 -10
-20 -10 -11 0 -20 5 -20 10 0 6 9 10 20 10 11 0 20 -4 20 -10z m60 -40 c8 -5
11 -12 8 -15 -4 -4 -17 0 -30 9 -24 17 -5 23 22 6z m60 -31 l-22 -34 7 30 c4
16 12 33 18 37 20 12 19 1 -3 -33z m-517 -6 c-13 -2 -33 -2 -45 0 -13 2 -3 4
22 4 25 0 35 -2 23 -4z m456 -64 c-11 -30 -23 -56 -26 -59 -7 -8 8 51 23 89
23 56 25 29 3 -30z m-499 37 c0 -2 -7 -6 -15 -10 -8 -3 -15 -1 -15 4 0 6 7 10
15 10 8 0 15 -2 15 -4z m-30 -50 c0 -3 -4 -8 -10 -11 -5 -3 -10 -1 -10 4 0 6
5 11 10 11 6 0 10 -2 10 -4z m340 -16 c0 -5 -8 -10 -17 -10 -15 0 -16 2 -3 10
19 12 20 12 20 0z m81 -107 c-12 -20 -14 -14 -5 12 4 9 9 14 11 11 3 -2 0 -13
-6 -23z m13 -215 c-9 -18 -19 -35 -22 -38 -8 -9 10 45 20 58 18 22 19 13 2
-20z m-51 -30 c-6 -24 -33 -68 -33 -55 0 12 28 77 34 77 2 0 2 -10 -1 -22z
m11 -113 c-40 -92 -58 -100 -29 -13 15 48 54 112 62 104 3 -2 -13 -43 -33 -91z
m-133 -192 c-12 -20 -14 -14 -5 12 4 9 9 14 11 11 3 -2 0 -13 -6 -23z m-142
-130 c0 -5 -7 -24 -15 -43 -9 -22 -12 -26 -9 -10 2 14 5 33 5 43 0 9 5 17 10
17 6 0 10 -3 9 -7z m67 -115 c-18 -26 -22 -17 -5 14 6 11 13 17 16 15 3 -3 -2
-16 -11 -29z m-137 -52 c-9 -8 -10 -7 -5 7 3 10 7 24 7 30 1 7 3 4 6 -7 3 -10
-1 -23 -8 -30z m-158 -299 c-10 -9 -11 -8 -5 6 3 10 9 15 12 12 3 -3 0 -11 -7
-18z m-21 -37 c-6 -11 -13 -20 -16 -20 -2 0 0 9 6 20 6 11 13 20 16 20 2 0 0
-9 -6 -20z m98 -20 c-5 -17 -14 -33 -19 -36 -8 -5 4 37 17 57 11 19 12 8 2
-21z m-153 -110 c-24 -52 -31 -45 -9 9 9 23 19 39 22 37 3 -3 -3 -24 -13 -46z
m-57 -72 c-2 -11 -11 -22 -20 -24 -22 -3 -23 4 -1 28 21 23 25 23 21 -4z m465
-25 c-7 -2 -21 -2 -30 0 -10 3 -4 5 12 5 17 0 24 -2 18 -5z m-352 -51 c-7 -2
-18 1 -23 6 -8 8 -4 9 13 5 13 -4 18 -8 10 -11z m-56 -20 c-3 -3 -11 0 -18 7
-9 10 -8 11 6 5 10 -3 15 -9 12 -12z m715 8 c0 -5 -9 -10 -21 -10 -11 0 -17 5
-14 10 3 6 13 10 21 10 8 0 14 -4 14 -10z m-565 -32 c12 -5 -1 -6 -35 -2 -30
3 -59 10 -65 16 -12 10 68 0 100 -14z m-75 -18 c20 -6 21 -8 5 -8 -11 0 -29 3
-40 8 -25 11 1 11 35 0z m455 -50 c30 -5 20 -6 -42 -6 -45 1 -76 4 -70 8 6 3
0 8 -14 11 -13 2 1 2 31 -1 30 -2 73 -8 95 -12z m195 -11 c0 -3 -7 -6 -15 -6
-17 0 -17 0 -9 22 5 13 8 14 15 3 5 -7 9 -16 9 -19z m-70 -17 c-17 -6 -42 7
-35 18 4 6 13 5 26 -3 10 -6 15 -13 9 -15z"/>
<path d="M1172 3855 c0 -16 2 -22 5 -12 2 9 2 23 0 30 -3 6 -5 -1 -5 -18z"/>
<path d="M2360 3852 c0 -5 -8 -9 -17 -8 -32 2 -28 -56 10 -138 36 -77 44 -126
37 -236 -4 -53 -4 -53 -11 25 -3 44 -4 -32 -2 -170 5 -233 4 -249 -11 -230
-16 19 -17 19 -12 -15 2 -19 10 -60 16 -90 7 -32 11 -133 11 -238 -1 -122 2
-181 9 -177 6 4 10 -14 11 -47 2 -97 -2 -142 -18 -213 -27 -124 -33 -168 -36
-255 -3 -76 -6 -86 -26 -96 -17 -9 -19 -13 -9 -18 9 -4 10 -8 2 -11 -7 -3 -9
-15 -6 -27 4 -18 9 -19 41 -12 20 4 82 8 138 9 98 0 101 1 90 20 -8 17 -8 18
4 9 8 -7 22 -8 34 -3 11 4 14 8 6 8 -8 1 -11 8 -8 21 4 16 0 20 -17 20 -38 0
-56 54 -51 157 2 55 1 73 -3 48 -13 -68 -22 253 -17 590 2 171 6 317 8 325 15
50 21 59 40 64 11 3 25 2 30 -1 6 -3 23 -7 39 -8 46 -4 74 -30 111 -102 23
-46 36 -87 39 -125 5 -62 0 -65 -20 -15 -8 21 -11 24 -8 8 3 -13 11 -93 17
-178 10 -120 10 -164 1 -199 -7 -24 -11 -61 -11 -82 l2 -37 8 35 c5 24 7 10 4
-44 -3 -43 -5 -95 -6 -115 0 -29 -2 -32 -9 -16 -5 12 -6 -2 -3 -36 8 -84 -4
-142 -39 -190 -17 -24 -33 -38 -36 -31 -7 23 -17 12 -16 -18 1 -37 8 -45 31
-35 10 5 62 9 116 9 72 1 100 5 106 15 6 8 20 12 39 9 21 -3 33 1 41 14 9 14
8 16 -6 11 -13 -5 -15 -2 -11 15 4 14 2 19 -7 16 -8 -3 -16 5 -21 18 -7 22 -7
22 -14 3 -12 -35 -22 67 -16 183 3 68 2 89 -3 57 -6 -37 -8 -14 -9 94 -2 133
-3 142 -19 130 -13 -11 -15 -11 -9 -1 20 34 37 150 42 297 4 132 3 170 -11
215 -9 30 -16 75 -16 100 1 42 0 43 -12 22 l-13 -23 -20 23 c-11 13 -32 40
-48 61 -28 38 -99 82 -116 72 -6 -3 -10 -3 -10 0 0 19 32 60 114 145 50 52 65
70 32 40 -32 -30 -57 -50 -55 -44 2 7 31 57 64 113 50 84 64 101 85 101 30 1
94 28 68 29 -11 1 -15 6 -12 16 8 20 -34 35 -102 35 -50 0 -70 11 -41 24 6 3
0 3 -15 0 -51 -11 -151 -7 -143 6 2 3 -12 5 -31 6 -39 1 -45 -13 -11 -25 22
-9 22 -9 -5 -16 -16 -4 -28 -11 -28 -16 0 -8 63 -29 88 -29 6 0 12 -4 12 -10
0 -5 -4 -10 -8 -10 -5 0 -14 -10 -21 -22 -6 -13 -9 -15 -6 -5 9 33 -14 7 -34
-38 -11 -25 -22 -45 -25 -45 -3 0 -3 7 0 15 4 8 4 15 1 15 -3 0 -18 -27 -33
-61 -27 -59 -28 -60 -41 -37 l-14 23 6 -25 c4 -17 3 -21 -3 -12 -10 16 -9 203
3 273 l7 45 -78 24 c-44 12 -85 25 -91 27 -7 3 -13 1 -13 -5z m-6 -43 c-6 -11
-24 -2 -24 11 0 5 7 7 15 4 8 -4 12 -10 9 -15z m26 -9 c0 -5 -5 -10 -11 -10
-5 0 -7 5 -4 10 3 6 8 10 11 10 2 0 4 -4 4 -10z m130 0 c11 -8 7 -9 -15 -4
-37 8 -45 14 -19 14 10 0 26 -5 34 -10z m-130 -84 c-1 -16 -5 -12 -15 13 -19
42 -19 52 0 27 8 -11 15 -29 15 -40z m365 4 c3 -5 1 -10 -4 -10 -6 0 -11 5
-11 10 0 6 2 10 4 10 3 0 8 -4 11 -10z m118 -17 c-7 -2 -19 -2 -25 0 -7 3 -2
5 12 5 14 0 19 -2 13 -5z m87 -3 c0 -5 -4 -10 -10 -10 -5 0 -10 5 -10 10 0 6
5 10 10 10 6 0 10 -4 10 -10z m-533 -42 c-3 -8 -6 -5 -6 6 -1 11 2 17 5 13 3
-3 4 -12 1 -19z m290 -10 c-3 -8 -6 -5 -6 6 -1 11 2 17 5 13 3 -3 4 -12 1 -19z
m-29 -47 c-11 -30 -103 -189 -107 -186 -9 9 84 194 97 195 8 0 12 -4 10 -9z
m149 -24 c-8 -12 -33 -60 -56 -106 -44 -86 -68 -107 -33 -28 23 51 89 157 98
157 3 0 0 -10 -9 -23z m-290 -129 c-3 -8 -6 -5 -6 6 -1 11 2 17 5 13 3 -3 4
-12 1 -19z m-20 -40 c-3 -8 -6 -5 -6 6 -1 11 2 17 5 13 3 -3 4 -12 1 -19z
m155 -71 c-7 -8 -8 -18 -4 -22 4 -5 1 -5 -5 -1 -10 5 -10 11 -1 26 7 11 14 17
17 15 2 -3 -1 -11 -7 -18z m114 -88 c8 -13 -21 1 -51 26 -19 15 -18 15 12 1
17 -9 35 -21 39 -27z m-211 -59 c-3 -5 -13 -10 -21 -10 -8 0 -12 5 -9 10 3 6
13 10 21 10 8 0 12 -4 9 -10z m-168 -52 c-2 -13 -4 -5 -4 17 -1 22 1 32 4 23
2 -10 2 -28 0 -40z m442 -13 c0 -5 -6 1 -14 15 -8 14 -14 30 -14 35 0 6 6 -1
14 -15 8 -14 14 -29 14 -35z m-81 -31 c-4 -3 -12 5 -18 18 -12 22 -12 22 6 6
10 -10 15 -20 12 -24z m144 -56 c2 -13 1 -34 -2 -48 -6 -24 -7 -23 -13 9 -4
18 -7 40 -7 47 0 23 17 16 22 -8z m15 -185 c-2 -16 -4 -5 -4 22 0 28 2 40 4
28 2 -13 2 -35 0 -50z m-498 -45 c-2 -115 -7 -106 -11 20 -2 45 0 82 4 82 5 0
7 -46 7 -102z m398 50 c-3 -7 -5 -2 -5 12 0 14 2 19 5 13 2 -7 2 -19 0 -25z
m86 -58 c4 -36 3 -48 -3 -35 -8 19 -14 103 -6 94 2 -2 6 -29 9 -59z m4 -97
c-3 -10 -5 -4 -5 12 0 17 2 24 5 18 2 -7 2 -21 0 -30z m-80 -5 c-3 -8 -6 -5
-6 6 -1 11 2 17 5 13 3 -3 4 -12 1 -19z m-340 -315 c-2 -21 -4 -6 -4 32 0 39
2 55 4 38 2 -18 2 -50 0 -70z m413 -89 c0 -8 -4 -12 -10 -9 -5 3 -10 10 -10
16 0 5 5 9 10 9 6 0 10 -7 10 -16z m-525 -233 c-2 -25 -4 -50 -4 -55 -1 -6 -4
-6 -10 0 -5 5 -7 43 -3 84 4 60 7 69 13 46 4 -16 6 -49 4 -75z m132 67 c-3 -8
-6 -5 -6 6 -1 11 2 17 5 13 3 -3 4 -12 1 -19z m274 -41 c-8 -8 -11 -7 -11 4 0
20 13 34 18 19 3 -7 -1 -17 -7 -23z m106 -43 c-3 -3 -12 -4 -19 -1 -8 3 -5 6
6 6 11 1 17 -2 13 -5z m73 -14 c0 -5 -2 -10 -4 -10 -3 0 -8 5 -11 10 -3 6 -1
10 4 10 6 0 11 -4 11 -10z m-436 -15 c3 -8 1 -15 -4 -15 -6 0 -10 7 -10 15 0
8 2 15 4 15 2 0 6 -7 10 -15z m243 9 c-3 -3 -12 -4 -19 -1 -8 3 -5 6 6 6 11 1
17 -2 13 -5z m116 -31 c-7 -2 -19 -2 -25 0 -7 3 -2 5 12 5 14 0 19 -2 13 -5z
m-350 -60 c-7 -2 -19 -2 -25 0 -7 3 -2 5 12 5 14 0 19 -2 13 -5z m-183 -23 c0
-5 -9 -10 -21 -10 -11 0 -17 5 -14 10 3 6 13 10 21 10 8 0 14 -4 14 -10z"/>
<path d="M6583 3815 c0 -27 2 -38 4 -22 2 15 2 37 0 50 -2 12 -4 0 -4 -28z"/>
<path d="M1162 3800 c0 -14 2 -19 5 -12 2 6 2 18 0 25 -3 6 -5 1 -5 -13z"/>
<path d="M2718 3803 c-10 -2 -18 -9 -18 -14 0 -14 16 -11 30 6 7 8 11 14 9 14
-2 -1 -12 -3 -21 -6z"/>
<path d="M6369 3763 c-13 -16 -12 -17 4 -4 16 13 21 21 13 21 -2 0 -10 -8 -17
-17z"/>
<path d="M1146 3744 c-4 -14 -5 -28 -3 -31 3 -2 8 8 11 23 4 14 5 28 3 31 -3
2 -8 -8 -11 -23z"/>
<path d="M3120 3742 c0 -4 9 -15 20 -25 19 -16 27 -37 14 -37 -3 0 -14 10 -24
23 -10 12 -22 18 -26 14 -4 -4 14 -30 42 -57 46 -46 49 -51 46 -91 l-4 -42
-17 26 c-19 33 -31 34 -31 5 0 -17 3 -20 9 -9 17 27 43 -48 51 -148 5 -53 7
-97 6 -99 -5 -4 -36 99 -36 119 0 11 -4 19 -10 19 -15 0 -12 -42 10 -164 11
-60 20 -135 19 -165 l-1 -56 -13 50 c-16 62 -18 34 -4 -65 5 -41 9 -131 8
-200 0 -69 -1 -152 -1 -185 0 -49 -1 -55 -8 -30 -5 19 -6 -1 -3 -52 4 -56 2
-83 -5 -83 -7 0 -10 -33 -10 -92 1 -51 0 -144 -2 -205 -2 -105 -4 -113 -22
-113 -14 0 -18 -5 -14 -15 4 -11 -2 -15 -22 -16 -22 -1 -19 -3 13 -10 22 -5
50 -11 63 -14 13 -3 21 -9 18 -13 -2 -4 39 -6 91 -4 80 3 94 6 89 19 -5 12 1
14 34 11 l41 -4 -23 19 c-13 10 -16 15 -8 11 8 -5 -3 16 -25 46 -39 53 -39 53
-47 179 -11 183 -11 432 1 541 10 93 11 96 51 133 38 36 68 42 56 11 -3 -7 3
-19 13 -26 10 -7 40 -53 66 -102 42 -77 50 -102 61 -185 35 -263 0 -503 -77
-530 -33 -11 -37 -25 -11 -40 14 -9 15 -12 3 -20 -10 -7 -6 -11 18 -16 17 -4
29 -11 25 -16 -9 -16 -1 -13 73 23 29 15 32 15 36 -2 3 -13 0 -16 -17 -13 -16
4 -18 2 -7 -5 11 -8 10 -11 -5 -15 -10 -2 24 -5 76 -4 75 0 84 1 43 6 -28 4
-55 10 -60 15 -4 5 9 6 30 3 22 -3 35 -2 32 4 -4 5 1 9 10 9 9 0 13 -4 10 -10
-3 -5 -4 -10 0 -10 3 0 10 12 16 26 7 20 4 51 -10 118 -25 118 -46 721 -27
776 8 24 8 24 -8 5 -15 -20 -15 -20 -16 5 0 14 -9 43 -20 65 -11 22 -20 48
-21 60 0 11 -5 29 -10 40 -6 15 -7 11 -3 -15 6 -32 5 -33 -10 -21 -29 24 -49
72 -36 85 8 8 10 6 5 -9 -6 -19 -6 -19 8 -2 11 14 16 15 21 5 3 -7 3 -3 1 9
-3 12 -1 24 4 28 6 3 19 26 31 51 11 25 33 63 50 84 32 41 40 60 14 39 -13
-11 -14 -9 -8 17 4 16 7 41 7 56 0 15 4 25 8 22 8 -4 13 9 23 61 l6 30 -20
-35 -19 -35 -1 33 c0 17 -4 32 -9 32 -5 0 -11 14 -15 30 -3 19 -11 30 -19 28
-7 -2 -28 11 -45 28 -58 58 -115 79 -217 79 -60 0 -100 -6 -120 -16 -27 -13
-36 -13 -85 2 -74 22 -120 30 -120 21z m93 -57 c-20 -15 -43 -3 -43 21 0 10 6
11 30 2 28 -9 29 -11 13 -23z m262 25 c14 -6 -3 -9 -53 -9 -46 -1 -71 3 -67 9
7 12 92 12 120 0z m76 -18 c-7 -2 -18 1 -23 6 -8 8 -4 9 13 5 13 -4 18 -8 10
-11z m-266 -40 c-3 -3 -11 0 -18 7 -9 10 -8 11 6 5 10 -3 15 -9 12 -12z m55
-82 c-8 -5 -19 -10 -25 -10 -5 0 -3 5 5 10 8 5 20 10 25 10 6 0 3 -5 -5 -10z
m188 -42 c52 -44 52 -160 -1 -215 -17 -18 -34 -30 -39 -27 -5 3 -7 0 -6 -6 3
-13 -109 -116 -118 -108 -3 3 18 32 46 64 52 59 120 156 120 170 0 5 -17 -17
-37 -48 -45 -67 -131 -168 -144 -168 -15 0 -10 49 7 75 10 16 26 25 43 26 22
0 23 2 7 8 -18 7 -16 12 24 57 23 27 13 19 -24 -19 -45 -46 -66 -62 -67 -50 0
15 -2 15 -8 -2 -5 -11 -8 24 -8 85 -1 88 3 110 20 139 l20 33 -21 -11 c-27
-14 -39 -14 -25 0 28 28 176 25 211 -3z m37 2 c10 -11 13 -20 7 -20 -6 0 -16
9 -22 20 -6 11 -9 20 -7 20 2 0 12 -9 22 -20z m-278 -62 c-3 -7 -5 -2 -5 12 0
14 2 19 5 13 2 -7 2 -19 0 -25z m417 -52 c-3 -21 -9 -35 -11 -32 -3 3 -2 21 1
42 4 20 10 34 12 31 3 -3 2 -21 -2 -41z m-84 -326 c0 -6 -9 -5 -20 2 -11 7
-20 16 -20 21 0 4 9 3 20 -3 11 -6 20 -15 20 -20z m-131 -94 c43 -23 102 -108
82 -120 -4 -3 -18 13 -30 34 -23 41 -38 53 -27 23 3 -10 -10 -1 -29 21 -49 54
-48 68 4 42z m69 -31 c-3 -3 -9 2 -12 12 -6 14 -5 15 5 6 7 -7 10 -15 7 -18z
m20 -163 c-3 -29 -5 -27 -41 41 l-38 72 41 -41 c34 -33 41 -47 38 -72z m132
46 c0 -51 -5 -47 -13 10 -3 24 -1 40 4 36 5 -3 9 -24 9 -46z m-77 -159 c-10
-37 -23 2 -22 66 l1 60 13 -53 c7 -29 11 -62 8 -73z m-326 49 c-3 -7 -5 -2 -5
12 0 14 2 19 5 13 2 -7 2 -19 0 -25z m320 -120 c-3 -7 -5 -2 -5 12 0 14 2 19
5 13 2 -7 2 -19 0 -25z m-432 -315 c-4 -55 -11 -93 -17 -93 -12 0 -4 251 10
325 10 58 16 -111 7 -232z m442 165 c-2 -13 -4 -3 -4 22 0 25 2 35 4 23 2 -13
2 -33 0 -45z m90 0 c-2 -13 -4 -3 -4 22 0 25 2 35 4 23 2 -13 2 -33 0 -45z
m-404 -213 c4 -61 3 -90 -2 -75 -9 24 -15 188 -7 179 2 -2 6 -49 9 -104z m414
-17 c-3 -8 -6 -5 -6 6 -1 11 2 17 5 13 3 -3 4 -12 1 -19z m-140 -70 c-2 -13
-4 -5 -4 17 -1 22 1 32 4 23 2 -10 2 -28 0 -40z m163 -57 c-1 -13 -29 45 -29
59 0 8 6 0 14 -19 8 -18 15 -36 15 -40z m-390 -4 c0 -5 -4 -5 -10 -2 -5 3 -10
14 -10 23 0 15 2 15 10 2 5 -8 10 -19 10 -23z m185 13 c-3 -5 -16 -10 -28 -9
-21 0 -21 1 -2 9 28 12 37 12 30 0z m-368 -37 c-3 -10 -5 -4 -5 12 0 17 2 24
5 18 2 -7 2 -21 0 -30z m500 -9 c-3 -3 -12 -4 -19 -1 -8 3 -5 6 6 6 11 1 17
-2 13 -5z m-374 -51 c-13 -2 -35 -2 -50 0 -16 2 -5 4 22 4 28 0 40 -2 28 -4z"/>
<path d="M6592 3725 c0 -16 2 -22 5 -12 2 9 2 23 0 30 -3 6 -5 -1 -5 -18z"/>
<path d="M4438 3733 c7 -3 16 -2 19 1 4 3 -2 6 -13 5 -11 0 -14 -3 -6 -6z"/>
<path d="M2030 3709 c0 -11 4 -18 10 -14 5 3 7 12 3 20 -7 21 -13 19 -13 -6z"/>
<path d="M4498 3720 c17 -6 32 -13 32 -16 0 -4 -49 -3 -110 1 -94 6 -110 5
-110 -8 0 -8 -9 -17 -20 -20 -11 -3 -20 -10 -20 -17 0 -6 5 -8 10 -5 19 12 10
-41 -10 -55 -19 -14 -19 -14 1 -33 12 -12 24 -16 28 -10 8 12 111 12 111 0 0
-5 -6 -7 -13 -4 -8 3 -14 -1 -14 -9 0 -8 4 -14 9 -14 4 0 8 -9 8 -20 0 -11 4
-20 9 -20 4 0 7 -12 4 -27 -3 -24 -2 -25 6 -8 6 12 10 15 10 6 1 -8 3 -12 6
-9 3 3 -2 22 -10 42 l-16 37 38 -3 c31 -2 42 -10 66 -45 28 -42 28 -44 18
-119 -9 -63 -8 -85 5 -131 10 -35 13 -68 9 -91 -4 -21 -7 -71 -7 -112 0 -72
-1 -73 -9 -30 -5 25 -7 53 -5 62 2 10 -4 39 -14 65 -11 27 -19 42 -20 35 0 -7
7 -28 15 -48 11 -26 12 -40 4 -58 -8 -16 -8 -38 -1 -70 5 -25 6 -43 1 -40 -14
8 -11 -14 7 -48 14 -27 15 -64 11 -277 l-5 -246 10 195 c5 107 13 199 18 204
11 11 1 -377 -11 -454 -25 -162 -30 -177 -81 -210 -46 -31 -59 -52 -39 -65 6
-3 22 7 36 22 22 23 25 24 16 6 -16 -32 -16 -32 41 -39 41 -6 48 -9 33 -16
-14 -6 -5 -7 25 -4 42 5 77 0 140 -18 20 -6 22 -5 10 4 -11 9 -12 13 -2 17 6
2 12 11 12 19 0 8 8 14 18 14 12 1 4 12 -27 40 l-45 39 0 110 c-1 61 -4 102
-8 93 -5 -13 -7 -10 -7 10 -1 15 5 33 12 40 6 7 20 30 29 50 14 31 15 36 3 31
-8 -3 -15 -11 -15 -18 0 -7 -7 -18 -15 -25 -12 -10 -14 0 -14 74 0 47 4 86 8
86 17 0 29 182 21 307 -5 71 -8 241 -7 378 l2 250 35 6 c21 4 26 7 13 8 -13 0
-23 5 -23 9 0 12 47 32 75 32 25 0 46 19 23 21 -7 0 -4 4 7 9 29 13 35 12 29
-5 -13 -32 25 -13 70 35 51 55 58 68 22 44 -17 -11 -30 -13 -42 -6 -11 6 -13
11 -5 16 6 4 11 16 11 27 0 18 -8 19 -131 19 -93 0 -128 -3 -123 -11 6 -11
-74 -8 -151 6 -29 5 -29 4 3 -5z m325 -17 c-13 -2 -33 -2 -45 0 -13 2 -3 4 22
4 25 0 35 -2 23 -4z m-43 -22 c0 -4 -11 -6 -25 -3 -14 2 -25 6 -25 8 0 2 11 4
25 4 14 0 25 -4 25 -9z m-16 -40 c3 -4 -6 -6 -19 -3 -14 2 -25 6 -25 8 0 8 39
4 44 -5z m41 -1 c-3 -5 -11 -10 -16 -10 -6 0 -7 5 -4 10 3 6 11 10 16 10 6 0
7 -4 4 -10z m-437 -17 c-10 -2 -26 -2 -35 0 -10 3 -2 5 17 5 19 0 27 -2 18 -5z
m289 -29 c-3 -3 -12 -4 -19 -1 -8 3 -5 6 6 6 11 1 17 -2 13 -5z m78 -4 c16 -7
13 -9 -17 -9 -21 -1 -38 4 -38 9 0 12 27 12 55 0z m-270 -40 c3 -6 -4 -10 -17
-10 -18 0 -20 2 -8 10 19 12 18 12 25 0z m85 6 c0 -2 -7 -6 -15 -10 -8 -3 -15
-1 -15 4 0 6 7 10 15 10 8 0 15 -2 15 -4z m101 -73 c-8 -15 -10 -15 -11 -2 0
17 10 32 18 25 2 -3 -1 -13 -7 -23z m-74 -85 c-3 -8 -6 -5 -6 6 -1 11 2 17 5
13 3 -3 4 -12 1 -19z m99 -674 c-15 -14 -16 -13 -16 16 0 17 6 37 13 44 10 11
13 9 15 -15 2 -17 -3 -36 -12 -45z m-39 -191 c-2 -27 -3 -5 -3 47 0 52 1 74 3
48 2 -27 2 -69 0 -95z m-96 -336 c-10 -9 -11 -8 -5 6 3 10 9 15 12 12 3 -3 0
-11 -7 -18z m121 -22 c3 -13 1 -22 -3 -19 -9 5 -13 44 -5 44 2 0 6 -11 8 -25z
m-192 -68 c0 -2 -12 -14 -27 -28 l-28 -24 24 28 c23 25 31 32 31 24z m195 -67
c3 -5 -1 -10 -10 -10 -9 0 -13 5 -10 10 3 6 8 10 10 10 2 0 7 -4 10 -10z m35
-10 c0 -5 -2 -10 -4 -10 -3 0 -8 5 -11 10 -3 6 -1 10 4 10 6 0 11 -4 11 -10z"/>
<path d="M4126 3702 c-3 -3 -55 -4 -115 -4 -80 1 -112 -2 -120 -12 -9 -11 -6
-12 15 -8 19 3 25 1 20 -7 -4 -6 -19 -11 -34 -12 l-27 0 25 -10 c13 -6 25 -11
27 -13 1 -1 7 -47 14 -102 6 -54 17 -126 25 -159 19 -84 16 -90 -11 -20 -28
69 -32 62 -10 -13 9 -29 13 -57 9 -63 -8 -13 -7 -103 2 -133 4 -17 3 -18 -5
-6 -14 20 -13 8 4 -70 18 -83 18 -95 0 -113 -12 -13 -13 -28 -4 -99 11 -79 18
-218 12 -218 -1 0 -6 15 -11 33 -7 26 -9 20 -9 -38 0 -47 2 -59 6 -35 l6 35
13 -40 c16 -47 16 -43 12 -239 -1 -82 -7 -162 -12 -178 -7 -18 -25 -36 -52
-50 -22 -12 -35 -23 -28 -25 7 -3 17 -14 23 -25 7 -13 7 -18 1 -14 -6 3 -14 1
-17 -5 -5 -8 16 -9 75 -5 55 5 79 3 75 -4 -7 -12 2 -12 30 -1 11 5 32 5 47 0
18 -5 27 -4 25 3 -1 6 4 13 12 16 8 2 11 0 7 -6 -3 -6 -2 -13 4 -17 5 -3 10 3
10 14 0 13 7 21 17 21 12 0 11 4 -8 21 -13 11 -30 35 -36 52 l-13 32 6 -34 c5
-25 3 -32 -7 -29 -11 4 -14 49 -14 230 0 125 -3 221 -7 215 -4 -7 -8 3 -8 21
0 18 3 31 8 29 4 -3 5 41 3 96 -3 71 -6 93 -11 72 l-8 -30 -1 31 c0 17 2 47 6
65 l6 33 13 -39 c11 -39 12 -38 7 25 -4 58 0 76 37 169 22 57 39 105 37 108
-2 2 -19 -29 -38 -69 -33 -72 -34 -72 -37 -38 -2 19 1 99 7 176 13 172 14 298
1 269 -6 -14 -9 1 -8 48 1 49 6 74 19 90 9 12 21 19 25 15 4 -4 -4 -17 -17
-28 l-24 -21 28 17 c15 9 27 20 27 25 0 5 7 9 15 9 32 0 13 19 -27 28 -24 6
-33 10 -20 11 12 1 22 5 22 10 0 10 -36 21 -44 13z m-131 -32 c-3 -5 -15 -10
-25 -10 -10 0 -22 5 -25 10 -4 6 7 10 25 10 18 0 29 -4 25 -10z m-35 -62 c0
-25 -3 -29 -10 -18 -13 20 -13 50 0 50 6 0 10 -15 10 -32z m19 -433 c0 -25 -2
-27 -8 -10 -5 11 -11 43 -15 70 l-6 50 15 -40 c8 -22 14 -53 14 -70z m128 -37
c-2 -13 -4 -3 -4 22 0 25 2 35 4 23 2 -13 2 -33 0 -45z m-10 -135 c-3 -10 -5
-2 -5 17 0 19 2 27 5 18 2 -10 2 -26 0 -35z m-120 -155 c-3 -7 -5 -2 -5 12 0
14 2 19 5 13 2 -7 2 -19 0 -25z m120 -170 c-3 -8 -6 -5 -6 6 -1 11 2 17 5 13
3 -3 4 -12 1 -19z m-10 -160 c-2 -13 -4 -5 -4 17 -1 22 1 32 4 23 2 -10 2 -28
0 -40z m-6 -179 l-8 -124 -1 90 c-2 84 6 170 14 162 2 -2 0 -59 -5 -128z m-87
-214 c3 -8 1 -15 -4 -15 -6 0 -10 7 -10 15 0 8 2 15 4 15 2 0 6 -7 10 -15z
m171 -35 c3 -5 1 -10 -4 -10 -6 0 -11 5 -11 10 0 6 2 10 4 10 3 0 8 -4 11 -10z"/>
<path d="M5042 3680 c0 -14 2 -19 5 -12 2 6 2 18 0 25 -3 6 -5 1 -5 -13z"/>
<path d="M3697 3660 c3 -12 8 -18 11 -15 3 3 18 -7 34 -22 37 -36 36 -22 -3
22 -35 39 -50 45 -42 15z"/>
<path d="M6602 3645 c0 -16 2 -22 5 -12 2 9 2 23 0 30 -3 6 -5 -1 -5 -18z"/>
<path d="M2061 3634 c0 -11 3 -14 6 -6 3 7 2 16 -1 19 -3 4 -6 -2 -5 -13z"/>
<path d="M6229 3633 c-13 -16 -12 -17 4 -4 9 7 17 15 17 17 0 8 -8 3 -21 -13z"/>
<path d="M2536 3595 c-9 -26 -7 -32 5 -12 6 10 9 21 6 23 -2 3 -7 -2 -11 -11z"/>
<path d="M5258 3584 c-27 -13 -48 -27 -48 -29 0 -5 99 42 109 51 13 11 -20 0
-61 -22z"/>
<path d="M2905 3560 c-3 -5 -1 -10 4 -10 6 0 11 5 11 10 0 6 -2 10 -4 10 -3 0
-8 -4 -11 -10z"/>
<path d="M5270 3560 c-8 -5 -10 -10 -5 -10 6 0 17 5 25 10 8 5 11 10 5 10 -5
0 -17 -5 -25 -10z"/>
<path d="M6823 3535 c0 -22 2 -30 4 -17 2 12 2 30 0 40 -3 9 -5 -1 -4 -23z"/>
<path d="M5148 3523 c-27 -14 -46 -28 -45 -30 7 -6 67 19 67 29 0 5 8 7 18 4
9 -3 28 2 42 10 23 14 13 13 -27 -3 -11 -4 -14 -3 -9 5 10 16 8 16 -46 -15z"/>
<path d="M2875 3494 c-9 -15 -12 -23 -6 -20 11 7 35 46 28 46 -3 0 -12 -12
-22 -26z"/>
<path d="M5616 3505 c-9 -26 -7 -32 5 -12 6 10 9 21 6 23 -2 3 -7 -2 -11 -11z"/>
<path d="M6062 3495 c0 -16 2 -22 5 -12 2 9 2 23 0 30 -3 6 -5 -1 -5 -18z"/>
<path d="M2091 3454 c0 -11 3 -14 6 -6 3 7 2 16 -1 19 -3 4 -6 -2 -5 -13z"/>
<path d="M6812 3465 c0 -5 6 -41 13 -80 l13 -70 1 75 c0 47 -3 70 -8 61 -7
-11 -10 -10 -14 5 -2 10 -5 15 -5 9z"/>
<path d="M2785 3388 l-70 -73 73 70 c67 64 77 75 69 75 -1 0 -34 -33 -72 -72z"/>
<path d="M4441 3424 c0 -11 3 -14 6 -6 3 7 2 16 -1 19 -3 4 -6 -2 -5 -13z"/>
<path d="M4709 3404 c-4 -186 -3 -290 4 -277 9 16 11 302 2 311 -3 3 -5 -12
-6 -34z"/>
<path d="M4421 3414 c0 -11 3 -14 6 -6 3 7 2 16 -1 19 -3 4 -6 -2 -5 -13z"/>
<path d="M5612 3385 c-17 -37 -14 -45 4 -12 9 16 14 31 11 33 -2 2 -9 -7 -15
-21z"/>
<path d="M4451 3388 c0 -9 -4 -25 -7 -35 -5 -17 -5 -17 6 0 6 10 9 25 7 35 -4
15 -5 15 -6 0z"/>
<path d="M6118 3373 c6 -2 18 -2 25 0 6 3 1 5 -13 5 -14 0 -19 -2 -12 -5z"/>
<path d="M6804 3290 c0 -52 1 -74 3 -47 2 26 2 68 0 95 -2 26 -3 4 -3 -48z"/>
<path d="M5350 3356 c0 -8 4 -17 9 -20 5 -4 7 3 4 14 -6 23 -13 26 -13 6z"/>
<path d="M6342 3340 c0 -19 2 -27 5 -17 2 9 2 25 0 35 -3 9 -5 1 -5 -18z"/>
<path d="M4746 3344 c-3 -9 -2 -23 4 -32 7 -14 9 -10 10 16 0 35 -5 41 -14 16z"/>
<path d="M4458 3339 c-3 -8 0 -40 8 -69 8 -30 14 -62 14 -72 0 -10 7 -18 15
-18 8 0 15 7 15 15 0 8 -4 15 -9 15 -8 0 -24 60 -34 125 -2 16 -4 17 -9 4z"/>
<path d="M6887 3333 c-4 -3 -6 -83 -5 -177 l2 -171 6 175 c6 194 6 182 -3 173z"/>
<path d="M2022 3310 c0 -14 2 -19 5 -12 2 6 2 18 0 25 -3 6 -5 1 -5 -13z"/>
<path d="M1123 3240 c0 -30 2 -43 4 -27 2 15 2 39 0 55 -2 15 -4 2 -4 -28z"/>
<path d="M6843 3220 c0 -41 2 -58 4 -37 2 20 2 54 0 75 -2 20 -4 3 -4 -38z"/>
<path d="M4692 3255 c0 -16 2 -22 5 -12 2 9 2 23 0 30 -3 6 -5 -1 -5 -18z"/>
<path d="M4512 3240 c0 -14 2 -19 5 -12 2 6 2 18 0 25 -3 6 -5 1 -5 -13z"/>
<path d="M5321 3234 c0 -11 3 -14 6 -6 3 7 2 16 -1 19 -3 4 -6 -2 -5 -13z"/>
<path d="M2033 3180 c0 -36 2 -50 4 -32 2 17 2 47 0 65 -2 17 -4 3 -4 -33z"/>
<path d="M3911 3145 l1 -50 9 39 c6 26 6 43 -1 50 -7 7 -10 -6 -9 -39z"/>
<path d="M4743 3130 c0 -25 2 -35 4 -22 2 12 2 32 0 45 -2 12 -4 2 -4 -23z"/>
<path d="M2565 3134 l-30 -26 33 22 c17 12 32 23 32 26 0 7 -4 5 -35 -22z"/>
<path d="M6849 3070 c-4 -95 2 -279 10 -308 5 -15 6 56 4 158 -5 190 -10 246
-14 150z"/>
<path d="M2091 3074 c0 -11 3 -14 6 -6 3 7 2 16 -1 19 -3 4 -6 -2 -5 -13z"/>
<path d="M2062 3045 c0 -16 2 -22 5 -12 2 9 2 23 0 30 -3 6 -5 -1 -5 -18z"/>
<path d="M4693 3030 c0 -25 2 -35 4 -22 2 12 2 32 0 45 -2 12 -4 2 -4 -23z"/>
<path d="M832 3020 c0 -19 2 -27 5 -17 2 9 2 25 0 35 -3 9 -5 1 -5 -18z"/>
<path d="M3921 3014 c0 -11 3 -14 6 -6 3 7 2 16 -1 19 -3 4 -6 -2 -5 -13z"/>
<path d="M5442 3010 c0 -14 2 -19 5 -12 2 6 2 18 0 25 -3 6 -5 1 -5 -13z"/>
<path d="M2752 3000 c0 -14 2 -19 5 -12 2 6 2 18 0 25 -3 6 -5 1 -5 -13z"/>
<path d="M1123 2940 c0 -41 2 -58 4 -37 2 20 2 54 0 75 -2 20 -4 3 -4 -38z"/>
<path d="M881 2984 c0 -11 3 -14 6 -6 3 7 2 16 -1 19 -3 4 -6 -2 -5 -13z"/>
<path d="M4733 2945 c0 -27 2 -38 4 -22 2 15 2 37 0 50 -2 12 -4 0 -4 -28z"/>
<path d="M4703 2915 c0 -38 2 -53 4 -32 2 20 2 52 0 70 -2 17 -4 1 -4 -38z"/>
<path d="M5431 2964 c0 -11 3 -14 6 -6 3 7 2 16 -1 19 -3 4 -6 -2 -5 -13z"/>
<path d="M891 2944 c0 -11 3 -14 6 -6 3 7 2 16 -1 19 -3 4 -6 -2 -5 -13z"/>
<path d="M2553 2885 c0 -38 2 -53 4 -32 2 20 2 52 0 70 -2 17 -4 1 -4 -38z"/>
<path d="M5421 2924 c0 -11 3 -14 6 -6 3 7 2 16 -1 19 -3 4 -6 -2 -5 -13z"/>
<path d="M6876 2783 c4 -82 8 -150 10 -152 2 -2 4 64 4 147 0 95 -4 152 -10
152 -7 0 -8 -51 -4 -147z"/>
<path d="M901 2904 c0 -11 3 -14 6 -6 3 7 2 16 -1 19 -3 4 -6 -2 -5 -13z"/>
<path d="M4152 2730 c-1 -107 -4 -226 -7 -265 l-4 -70 10 70 c5 38 8 157 6
265 l-2 195 -3 -195z"/>
<path d="M2071 2894 c0 -11 3 -14 6 -6 3 7 2 16 -1 19 -3 4 -6 -2 -5 -13z"/>
<path d="M3157 2883 c-4 -3 -7 -11 -7 -17 0 -6 5 -5 12 2 6 6 9 14 7 17 -3 3
-9 2 -12 -2z"/>
<path d="M5411 2874 c0 -11 3 -14 6 -6 3 7 2 16 -1 19 -3 4 -6 -2 -5 -13z"/>
<path d="M911 2854 c0 -11 3 -14 6 -6 3 7 2 16 -1 19 -3 4 -6 -2 -5 -13z"/>
<path d="M822 2835 c0 -16 2 -22 5 -12 2 9 2 23 0 30 -3 6 -5 -1 -5 -18z"/>
<path d="M3130 2800 c-7 -28 -10 -53 -8 -55 3 -3 10 18 16 47 7 28 11 53 8 55
-2 2 -9 -19 -16 -47z"/>
<path d="M3171 2834 c0 -11 3 -14 6 -6 3 7 2 16 -1 19 -3 4 -6 -2 -5 -13z"/>
<path d="M6831 2804 c0 -27 4 -58 9 -69 5 -12 7 5 3 45 -7 79 -13 91 -12 24z"/>
<path d="M921 2804 c0 -11 3 -14 6 -6 3 7 2 16 -1 19 -3 4 -6 -2 -5 -13z"/>
<path d="M4722 2770 c0 -19 2 -27 5 -17 2 9 2 25 0 35 -3 9 -5 1 -5 -18z"/>
<path d="M828 2764 c3 -16 7 -21 12 -14 4 7 12 0 20 -20 7 -17 15 -29 17 -26
6 6 -23 60 -40 74 -12 10 -13 8 -9 -14z"/>
<path d="M5376 2754 c-4 -14 -5 -28 -3 -31 3 -2 8 8 11 23 4 14 5 28 3 31 -3
2 -8 -8 -11 -23z"/>
<path d="M6102 2711 c-6 -27 -8 -61 -3 -77 6 -24 9 -16 14 45 4 41 6 75 4 77
-2 2 -9 -18 -15 -45z"/>
<path d="M821 2685 c0 -22 4 -49 9 -60 7 -15 9 -9 9 25 0 25 -4 52 -9 60 -7
11 -10 4 -9 -25z"/>
<path d="M3113 2670 c0 -25 2 -35 4 -22 2 12 2 32 0 45 -2 12 -4 2 -4 -23z"/>
<path d="M5356 2695 c-9 -26 -7 -32 5 -12 6 10 9 21 6 23 -2 3 -7 -2 -11 -11z"/>
<path d="M4711 2684 c0 -11 3 -14 6 -6 3 7 2 16 -1 19 -3 4 -6 -2 -5 -13z"/>
<path d="M2537 2555 c3 -71 6 -134 8 -140 7 -21 3 192 -4 230 -5 24 -6 -13 -4
-90z"/>
<path d="M6853 2625 c0 -27 2 -38 4 -22 2 15 2 37 0 50 -2 12 -4 0 -4 -28z"/>
<path d="M5302 2635 c0 -16 2 -22 5 -12 2 9 2 23 0 30 -3 6 -5 -1 -5 -18z"/>
<path d="M5336 2645 c-9 -26 -7 -32 5 -12 6 10 9 21 6 23 -2 3 -7 -2 -11 -11z"/>
<path d="M2761 2603 c-1 -24 4 -43 9 -43 12 0 12 37 0 65 -7 15 -9 10 -9 -22z"/>
<path d="M6081 2614 c0 -11 3 -14 6 -6 3 7 2 16 -1 19 -3 4 -6 -2 -5 -13z"/>
<path d="M911 2594 c0 -11 3 -14 6 -6 3 7 2 16 -1 19 -3 4 -6 -2 -5 -13z"/>
<path d="M4702 2570 c0 -19 2 -27 5 -17 2 9 2 25 0 35 -3 9 -5 1 -5 -18z"/>
<path d="M5290 2561 c1 -25 1 -25 15 -7 19 25 19 33 0 33 -10 0 -15 -10 -15
-26z"/>
<path d="M6092 2565 c0 -16 2 -22 5 -12 2 9 2 23 0 30 -3 6 -5 -1 -5 -18z"/>
<path d="M6821 2574 c0 -11 3 -14 6 -6 3 7 2 16 -1 19 -3 4 -6 -2 -5 -13z"/>
<path d="M842 2540 c0 -19 2 -27 5 -17 2 9 2 25 0 35 -3 9 -5 1 -5 -18z"/>
<path d="M6872 2530 c0 -19 2 -27 5 -17 2 9 2 25 0 35 -3 9 -5 1 -5 -18z"/>
<path d="M3151 2534 c0 -11 3 -14 6 -6 3 7 2 16 -1 19 -3 4 -6 -2 -5 -13z"/>
<path d="M6082 2485 c0 -16 2 -22 5 -12 2 9 2 23 0 30 -3 6 -5 -1 -5 -18z"/>
<path d="M5840 2486 c0 -8 4 -17 9 -20 5 -4 7 3 4 14 -6 23 -13 26 -13 6z"/>
<path d="M852 2465 c0 -16 2 -22 5 -12 2 9 2 23 0 30 -3 6 -5 -1 -5 -18z"/>
<path d="M2721 2473 c-1 -12 4 -25 9 -28 12 -7 12 2 0 30 -8 19 -9 19 -9 -2z"/>
<path d="M6862 2460 c0 -14 2 -19 5 -12 2 6 2 18 0 25 -3 6 -5 1 -5 -13z"/>
<path d="M3113 2425 c0 -27 2 -38 4 -22 2 15 2 37 0 50 -2 12 -4 0 -4 -28z"/>
<path d="M822 2435 c0 -16 2 -22 5 -12 2 9 2 23 0 30 -3 6 -5 -1 -5 -18z"/>
<path d="M3936 2402 c-9 -15 -16 -222 -7 -222 12 0 17 30 20 138 2 85 0 104
-13 84z"/>
<path d="M6852 2390 c0 -14 2 -19 5 -12 2 6 2 18 0 25 -3 6 -5 1 -5 -13z"/>
<path d="M862 2380 c0 -14 2 -19 5 -12 2 6 2 18 0 25 -3 6 -5 1 -5 -13z"/>
<path d="M2752 2360 c0 -14 2 -19 5 -12 2 6 2 18 0 25 -3 6 -5 1 -5 -13z"/>
<path d="M4127 2356 c-5 -15 -6 -31 -3 -34 8 -8 18 25 14 45 -3 13 -6 10 -11
-11z"/>
<path d="M832 2345 c0 -16 2 -22 5 -12 2 9 2 23 0 30 -3 6 -5 -1 -5 -18z"/>
<path d="M872 2330 c0 -14 2 -19 5 -12 2 6 2 18 0 25 -3 6 -5 1 -5 -13z"/>
<path d="M2731 2324 c0 -11 3 -14 6 -6 3 7 2 16 -1 19 -3 4 -6 -2 -5 -13z"/>
<path d="M3122 2315 c0 -16 2 -22 5 -12 2 9 2 23 0 30 -3 6 -5 -1 -5 -18z"/>
<path d="M842 2290 c0 -14 2 -19 5 -12 2 6 2 18 0 25 -3 6 -5 1 -5 -13z"/>
<path d="M1641 2294 c0 -11 3 -14 6 -6 3 7 2 16 -1 19 -3 4 -6 -2 -5 -13z"/>
<path d="M6603 2265 c0 -22 2 -30 4 -17 2 12 2 30 0 40 -3 9 -5 -1 -4 -23z"/>
<path d="M882 2260 c0 -14 2 -19 5 -12 2 6 2 18 0 25 -3 6 -5 1 -5 -13z"/>
<path d="M3132 2255 c0 -16 2 -22 5 -12 2 9 2 23 0 30 -3 6 -5 -1 -5 -18z"/>
<path d="M5882 2260 c0 -14 2 -19 5 -12 2 6 2 18 0 25 -3 6 -5 1 -5 -13z"/>
<path d="M852 2240 c0 -14 2 -19 5 -12 2 6 2 18 0 25 -3 6 -5 1 -5 -13z"/>
<path d="M1652 2210 c0 -19 2 -27 5 -17 2 9 2 25 0 35 -3 9 -5 1 -5 -18z"/>
<path d="M862 2190 c0 -14 2 -19 5 -12 2 6 2 18 0 25 -3 6 -5 1 -5 -13z"/>
<path d="M5737 2163 c-4 -3 -7 -11 -7 -17 0 -6 5 -5 12 2 6 6 9 14 7 17 -3 3
-9 2 -12 -2z"/>
<path d="M1942 2135 c0 -16 2 -22 5 -12 2 9 2 23 0 30 -3 6 -5 -1 -5 -18z"/>
<path d="M5742 2110 c0 -14 2 -19 5 -12 2 6 2 18 0 25 -3 6 -5 1 -5 -13z"/>
<path d="M1663 2040 c0 -36 2 -50 4 -32 2 17 2 47 0 65 -2 17 -4 3 -4 -33z"/>
<path d="M6602 2039 c-1 -9 -5 -32 -8 -50 -5 -26 -4 -31 5 -23 7 7 11 28 8 50
-2 22 -4 32 -5 23z"/>
<path d="M6822 1920 c0 -19 2 -27 5 -17 2 9 2 25 0 35 -3 9 -5 1 -5 -18z"/>
<path d="M1621 1864 c0 -11 3 -14 6 -6 3 7 2 16 -1 19 -3 4 -6 -2 -5 -13z"/>
<path d="M1630 1825 c0 -5 5 -17 10 -25 5 -8 10 -10 10 -5 0 6 -5 17 -10 25
-5 8 -10 11 -10 5z"/>
<path d="M3700 1800 c-248 -18 -381 -33 -368 -41 7 -5 -8 -6 -34 -3 -33 5 -48
3 -48 -5 0 -7 -9 -9 -23 -6 -21 6 -258 -29 -382 -56 -286 -61 -774 -193 -761
-206 1 -2 44 8 95 21 50 14 91 20 91 15 0 -5 -8 -9 -17 -9 -9 0 -14 -2 -11 -5
10 -10 58 7 51 18 -4 6 3 8 20 3 16 -4 27 -2 29 6 2 6 18 11 36 11 18 0 32 4
32 8 0 6 38 14 110 25 8 1 98 18 200 38 503 97 816 128 1320 130 318 1 413 -2
625 -22 510 -47 854 -114 1351 -263 204 -61 301 -83 281 -63 -3 3 -32 16 -65
28 -33 11 -60 26 -61 31 -3 15 -18 21 -188 82 -341 120 -737 200 -1238 249
-182 17 -876 27 -1045 14z"/>
<path d="M1650 1775 c0 -5 5 -17 10 -25 5 -8 10 -10 10 -5 0 6 -5 17 -10 25
-5 8 -10 11 -10 5z"/>
<path d="M6832 1760 c0 -14 2 -19 5 -12 2 6 2 18 0 25 -3 6 -5 1 -5 -13z"/>
<path d="M6381 1683 c-10 -26 -10 -27 4 -9 8 11 15 23 15 28 0 15 -7 8 -19
-19z"/>
<path d="M6310 1664 c0 -8 5 -12 10 -9 6 4 8 11 5 16 -9 14 -15 11 -15 -7z"/>
<path d="M1133 1610 c0 -25 2 -35 4 -22 2 12 2 32 0 45 -2 12 -4 2 -4 -23z"/>
<path d="M2208 1493 c7 -3 16 -2 19 1 4 3 -2 6 -13 5 -11 0 -14 -3 -6 -6z"/>
<path d="M2120 1475 c-25 -7 -65 -19 -89 -25 -23 -6 -41 -13 -39 -15 4 -5 190
44 197 51 8 8 -24 3 -69 -11z"/>
<path d="M1958 1423 c7 -3 16 -2 19 1 4 3 -2 6 -13 5 -11 0 -14 -3 -6 -6z"/>
<path d="M6975 1386 c10 -14 19 -26 22 -26 7 0 -17 39 -28 46 -6 3 -3 -5 6
-20z"/>
<path d="M900 1370 c0 -5 5 -10 10 -10 6 0 10 5 10 10 0 6 -4 10 -10 10 -5 0
-10 -4 -10 -10z"/>
<path d="M883 1303 c-6 -26 -10 -49 -9 -51 7 -7 33 77 27 87 -4 6 -12 -10 -18
-36z"/>
<path d="M6601 1135 c-42 -21 -43 -23 -23 -34 30 -16 39 -14 16 5 -20 16 -21
16 46 -2 8 -2 44 0 80 5 l65 8 -89 2 -88 1 23 20 c29 24 26 23 -30 -5z"/>
<path d="M6718 1093 c12 -2 30 -2 40 0 9 3 -1 5 -23 4 -22 0 -30 -2 -17 -4z"/>
<path d="M6630 1080 c8 -5 20 -10 25 -10 6 0 3 5 -5 10 -8 5 -19 10 -25 10 -5
0 -3 -5 5 -10z"/>
<path d="M6768 1033 c7 -3 16 -2 19 1 4 3 -2 6 -13 5 -11 0 -14 -3 -6 -6z"/>
<path d="M6808 1023 c7 -3 16 -2 19 1 4 3 -2 6 -13 5 -11 0 -14 -3 -6 -6z"/>
<path d="M6848 1013 c6 -2 18 -2 25 0 6 3 1 5 -13 5 -14 0 -19 -2 -12 -5z"/>
<path d="M6908 1003 c6 -2 18 -2 25 0 6 3 1 5 -13 5 -14 0 -19 -2 -12 -5z"/>
<path d="M6958 993 c6 -2 18 -2 25 0 6 3 1 5 -13 5 -14 0 -19 -2 -12 -5z"/>
<path d="M982 925 c-9 -20 -9 -23 3 -18 8 3 15 14 15 24 0 25 -5 24 -18 -6z"/>
</g>
</svg>
